<?xml version="1.0" standalone="no"?>
<!DOCTYPE svg PUBLIC "-//W3C//DTD SVG 1.1//EN" "http://www.w3.org/Graphics/SVG/1.1/DTD/svg11.dtd" >
<svg xmlns="http://www.w3.org/2000/svg">
<metadata></metadata>
<defs>
<font id="wastedregular" horiz-adv-x="997" >
<font-face units-per-em="2048" ascent="1536" descent="-512" />
<missing-glyph horiz-adv-x="692" />
<glyph horiz-adv-x="0" />
<glyph unicode="&#xd;" horiz-adv-x="692" />
<glyph horiz-adv-x="0" />
<glyph horiz-adv-x="0" />
<glyph unicode=" "  horiz-adv-x="692" />
<glyph unicode="&#x09;" horiz-adv-x="692" />
<glyph unicode="&#xa0;" horiz-adv-x="692" />
<glyph unicode="!" horiz-adv-x="413" d="M-119 98q-10 -29 3 -56t42 -38q20 -4 25 -4q51 0 67 49l33 88q11 29 -1.5 56.5t-41.5 37.5q-29 11 -56.5 -1.5t-37.5 -41.5zM4 432q-11 -29 1.5 -56.5t41.5 -37.5q20 -4 25 -4q24 0 43 13t26 36l346 952q11 29 -1.5 57t-41.5 38t-56 -3.5t-38 -42.5z" />
<glyph unicode="&#x22;" horiz-adv-x="495" d="M66 1073q-10 -29 3 -56t42 -38q20 -4 24 -4q52 0 68 49l114 311q10 29 -3 56.5t-42 38.5q-29 10 -55 -3t-37 -43zM297 1073q-10 -29 3 -56t42 -38q20 -4 25 -4q48 0 69 49l113 311q11 29 -1.5 57t-41.5 38t-56 -3.5t-38 -42.5z" />
<glyph unicode="#" horiz-adv-x="1105" d="M-106 506q0 -31 21 -52.5t52 -21.5h193l-121 -334q-11 -29 1.5 -56.5t41.5 -37.5q20 -4 27 -4q51 0 67 49l141 383h238l-123 -334q-10 -29 3 -56t42 -38q20 -4 25 -4q24 0 43 13t26 36l140 383h260q31 0 52 21.5t21 52.5t-21 52.5t-52 21.5h-207l123 338h256 q31 0 52.5 21t21.5 52q0 30 -22 52t-52 22h-203l98 270q11 29 -1.5 57t-41.5 38t-56 -3.5t-38 -42.5l-117 -319h-237l98 270q11 29 -1.5 57t-41.5 38t-56 -3.5t-38 -42.5l-117 -319h-252q-30 0 -51.5 -22t-21.5 -52q0 -31 21 -52t52 -21h197l-123 -338h-246q-31 0 -52 -21.5 t-21 -52.5zM371 580l123 338h237l-123 -338h-237z" />
<glyph unicode="$" horiz-adv-x="1083" d="M2 422q0 -84 33.5 -161.5t91.5 -135.5q125 -125 299 -125t299 125q123 123 123 297q0 78 -22 160t-62 192l-43 111l117 325q6 -15 6 -30q0 -32 21.5 -54t52.5 -22q32 0 53.5 22t21.5 54q0 120 -94 198l59 160q11 29 -2.5 58.5t-42.5 39.5q-29 11 -57.5 -2.5t-38.5 -44.5 l-57 -155h-21q-106 0 -180 -74q-76 -76 -76 -180q0 -84 60 -252v-2l80 -205q73 -183 73 -299q0 -111 -80 -191q-79 -79 -190 -79q-114 0 -193 79t-79 191q0 113 79 192q80 80 193 80q31 0 53.5 22.5t22.5 53.5t-22.5 53.5t-53.5 22.5q-174 0 -299 -125t-125 -299zM354 319 q-11 -29 2.5 -57.5t42.5 -38.5q12 -4 25 -4q24 0 44.5 13t27.5 36l114 314q10 31 -3 59t-42 39t-57.5 -2.5t-38.5 -42.5zM635 1180q0 34 18.5 59.5t48.5 36.5l-59 -162q-8 27 -8 66z" />
<glyph unicode="%" horiz-adv-x="991" d="M-143 991q0 -114 84 -198q79 -82 196 -82t199 82q82 85 82 198q0 114 -82 199q-83 80 -199 80t-196 -80q-84 -84 -84 -199zM-70 61q4 -30 24 -45.5t48 -15.5q37 0 59 31l936 1286q19 25 14 54t-30 48t-54 14t-48 -30l-936 -1286q-19 -25 -13 -56zM4 991q0 55 39 94t94 39 t94 -39t39 -94t-39 -94t-94 -39t-94 39t-39 94zM573 506q0 -116 84 -197q81 -84 197 -84q115 0 199 84q82 82 82 197q0 114 -82 199q-84 81 -199 81q-116 0 -197 -81q-84 -84 -84 -199zM721 506q0 56 38.5 94.5t94.5 38.5t94.5 -38.5t38.5 -94.5t-38.5 -94.5t-94.5 -38.5 t-94.5 38.5t-38.5 94.5z" />
<glyph unicode="&#x26;" horiz-adv-x="1228" d="M33 297q35 -88 100.5 -154.5t153.5 -103.5q85 -39 184 -39q97 0 176 33q88 35 154.5 100.5t103.5 153.5q77 181 6 358q152 61 240 131q106 89 106 209q0 31 -21 52.5t-52 21.5t-52.5 -21.5t-21.5 -52.5q0 -68 -100 -129q-54 -33 -222 -102q-185 -75 -266 -131 q-123 -85 -123 -209q0 -31 21.5 -52.5t50.5 -21.5q31 0 52.5 21.5t21.5 52.5q0 49 69 96q43 30 160 80q23 -64 23 -123q0 -63 -26.5 -124t-72.5 -105q-94 -91 -227 -91q-65 0 -127 27q-121 52 -174 178q-51 123 4 248q52 121 178 174q64 23 125 23q65 0 123 -27 q29 -12 56.5 -1t39.5 40q11 26 1.5 53t-33.5 39l-2 2q-71 45 -91 131q-20 85 25 156q46 72 129 92q84 20 158 -27q93 -64 96 -170q2 -30 24 -50t52 -19q30 0 50.5 22.5t20.5 53.5q-5 88 -48.5 164.5t-116.5 123.5q-124 77 -267 45q-145 -32 -223 -157q-46 -73 -52.5 -161.5 t25.5 -164.5q-87 -4 -147 -33q-183 -74 -258 -252q-79 -178 -6 -360z" />
<glyph unicode="'" horiz-adv-x="514" d="M193 1141q-11 -29 1.5 -56.5t41.5 -37.5q25 -5 26 -5q23 0 42 13.5t26 36.5l114 311q10 29 -3 56t-42 38q-29 10 -56 -3t-38 -42z" />
<glyph unicode="(" horiz-adv-x="614" d="M-2 -131q0 -33 19.5 -53.5t54.5 -20.5q27 0 49 21.5t22 52.5q-12 369 166 833q160 450 426 811q18 29 12.5 57.5t-34.5 45.5q-24 17 -51.5 12t-51.5 -29q-272 -379 -438 -843q-186 -517 -174 -887z" />
<glyph unicode=")" horiz-adv-x="790" d="M4 -146.5q4 -29.5 33 -48.5q5 -1 13 -4t9 -4q12 -4 23 -4q39 0 59 29q296 420 459 878q176 465 176 856q0 33 -19.5 53.5t-51.5 20.5q-30 0 -53 -21.5t-23 -52.5q0 -332 -160 -804q-186 -476 -446 -840q-23 -29 -19 -58.5z" />
<glyph unicode="*" horiz-adv-x="1705" />
<glyph unicode="+" horiz-adv-x="1236" d="M190 500q0 -31 21.5 -52.5t52.5 -21.5h283l-105 -289q-11 -30 1.5 -58t41.5 -38q20 -4 27 -4q52 0 68 49l125 340h335q31 0 52.5 21.5t21.5 52.5t-21.5 52t-52.5 21h-282l106 289q10 29 -3 56t-42 38t-56.5 -1.5t-37.5 -41.5l-125 -340h-336q-31 0 -52.5 -21t-21.5 -52z " />
<glyph unicode="," horiz-adv-x="466" d="M8 -160q-11 -29 1.5 -56.5t41.5 -37.5q20 -4 27 -4q51 0 67 49l115 311q10 29 -3 56.5t-42 38.5q-29 10 -56 -3t-38 -42z" />
<glyph unicode="-" horiz-adv-x="751" d="M61 557q0 -31 21.5 -52.5t52.5 -21.5h481q31 0 52.5 21.5t21.5 52.5t-21.5 52.5t-52.5 21.5h-481q-31 0 -52.5 -21.5t-21.5 -52.5z" />
<glyph unicode="." horiz-adv-x="413" d="M139 98q-10 -29 3 -56t42 -38q20 -4 25 -4q49 0 70 49l20 60q11 29 -1.5 56.5t-41.5 37.5t-56 -3t-38 -42z" />
<glyph unicode="/" horiz-adv-x="634" d="M-57 -104q-11 -29 1.5 -57t41.5 -38q20 -4 26 -4q52 0 68 49l616 1692q11 29 -1.5 56.5t-41.5 37.5t-56 -3t-38 -42z" />
<glyph unicode="0" horiz-adv-x="1114" d="M-62 390.5q2 -161.5 74 -265.5q87 -125 242 -125q194 0 405 201q98 93 179.5 219.5t134.5 271.5q67 186 64.5 349.5t-74.5 267.5q-41 60 -103.5 92.5t-136.5 32.5q-96 0 -200.5 -52.5t-203.5 -146.5q-205 -195 -315 -494q-68 -189 -66 -350.5zM86 410q2 130 57 282 q95 255 273 430q79 78 160 121t147 43q76 0 119 -61q51 -71 49 -201.5t-57 -282.5q-95 -255 -273 -430q-79 -78 -160 -121t-147 -43q-75 0 -119 62q-51 71 -49 201z" />
<glyph unicode="1" horiz-adv-x="624" d="M-61 1011.5q-5 -30.5 14 -55.5t49 -29t55 15l289 213l-383 -1055q-11 -30 1.5 -58t41.5 -38q20 -4 27 -4q48 0 69 49l467 1284q10 23 4 47q-8 23 -28 38.5t-43 15.5q-24 0 -45 -15l-488 -358q-25 -19 -30 -49.5z" />
<glyph unicode="2" horiz-adv-x="880" d="M-74 39q20 -39 64 -39h633q31 0 52 21t21 51q0 31 -21 52t-52 21h-490l596 813q36 46 59 111q54 148 -22 260q-74 105 -215 105q-133 0 -260 -93q-124 -91 -174 -223q-31 -86 -17.5 -164.5t70.5 -132.5q20 -20 51 -20q29 0 51 22q21 23 20 53t-24 50q-50 50 -16 143 q34 87 123 156q86 63 176 63q69 0 96 -41q33 -45 6 -129q-18 -44 -41 -74l-680 -929q-26 -37 -6 -76z" />
<glyph unicode="3" horiz-adv-x="1005" d="M-76 340q-3 -84 27 -152q34 -80 111 -134t200 -54q159 0 318 102q172 112 249 287q21 46 32 95.5t12 105t-20.5 111t-64.5 100.5q-22 22 -43 37l9 6q132 99 178 235q44 130 -23 242q-54 85 -164 106q-77 17 -159.5 -6t-159.5 -80q-25 -19 -30 -48t14 -54t48 -30t54 14 q53 41 106 55q54 17 99.5 7.5t68.5 -42.5q36 -55 -4 -143q-43 -89 -114 -139q-79 -52 -138 -62q-14 0 -16 -2h-22q-31 0 -52.5 -21.5t-21.5 -52.5t21.5 -52t52.5 -21q15 0 51 4q88 -3 139 -54q31 -34 40 -81t0 -90.5t-30 -88.5q-64 -131 -194 -217q-64 -42 -136 -62 t-133 -14q-70 7 -116.5 52t-42.5 135q2 29 -18.5 52t-49.5 24q-31 2 -54 -18.5t-24 -51.5z" />
<glyph unicode="4" horiz-adv-x="1067" d="M-88 313q20 -45 68 -45h339q31 0 53.5 22.5t22.5 53.5t-22.5 52.5t-53.5 21.5h-169l577 622l-344 -942q-10 -29 3 -56t42 -38q20 -4 25 -4q24 0 43 13t26 36l82 219h4q106 0 180 27q126 43 181 115q18 27 18 28q16 30 7 58.5t-36 42.5q-29 17 -57.5 8t-42.5 -39l-10 -12 q-6 -7 -33 -27q-69 -42 -158 -49l334 913q10 26 1.5 51t-31.5 39t-49.5 10t-45.5 -24l-940 -1016q-37 -37 -14 -80z" />
<glyph unicode="5" horiz-adv-x="905" d="M-131 204q-7 -29 10 -54q72 -117 217 -144q38 -6 78 -6q94 0 184 33q92 32 178 94.5t148 142.5q63 81 96 174t29 179q-3 47 -18.5 91.5t-45 87.5t-82 75.5t-122.5 46.5q-125 21 -265 -27l142 389h395q31 0 52.5 21.5t21.5 52.5t-21.5 52.5t-52.5 21.5h-446 q-24 0 -43.5 -13.5t-26.5 -36.5l-225 -618q-15 -52 26 -84q17 -14 43 -14q25 0 45 14q79 59 165.5 84.5t160.5 11.5q84 -17 121 -76q57 -86 2 -223q-54 -138 -184 -231q-79 -59 -166.5 -84.5t-161.5 -11.5q-82 17 -121 75q-17 26 -46 33t-54 -10q-26 -17 -33 -46z" />
<glyph unicode="6" horiz-adv-x="1015" d="M-62 390.5q2 -161.5 74 -265.5q12 -18 27 -33q80 -92 215 -92q78 0 162 35q166 68 284 229q61 81 94 178t27 191q-3 52 -20 99t-50 89t-89.5 67t-129.5 25q-96 0 -193 -46.5t-177 -129.5q98 237 268 400q76 71 152.5 110t140.5 39q113 0 151 -133q11 -30 37.5 -44.5 t55.5 -4.5q29 7 44 33.5t7 56.5q-35 116 -111 178t-184 62q-96 0 -200.5 -52.5t-203.5 -146.5q-205 -195 -315 -494q-68 -189 -66 -350.5zM111 301q-1 62 26 131q51 140 168 236q116 98 227 98q77 0 113 -51q59 -84 6 -232q-49 -134 -168 -235t-229 -101q-10 0 -16 3h-15 q-43 8 -73 38q-2 6 -9 13q-29 38 -30 100z" />
<glyph unicode="7" horiz-adv-x="843" d="M-100 63q4 -30 24 -46.5t47 -16.5q38 0 60 31l948 1284q29 41 8 78q-24 41 -67 41h-703q-42 0 -63 -37l-91 -154q-17 -26 -9.5 -54.5t36.5 -45.5q26 -17 54.5 -10t45.5 36l70 117h512l-860 -1167q-18 -24 -12 -56z" />
<glyph unicode="8" horiz-adv-x="1028" d="M-36 294.5q7 -90.5 56 -159.5q97 -135 285 -135q181 0 354 127q176 129 238 305q72 201 -27 346q-22 35 -57 62q67 42 118 103t77 132q54 149 -23 256q-73 103 -211 103q-132 0 -254 -88q-118 -89 -170 -220q-53 -145 21 -258q-130 -55 -231.5 -156.5t-147.5 -228.5 q-35 -98 -28 -188.5zM131 432q25 67 73.5 129t110.5 107q136 98 269 98q115 0 166 -72q27 -39 30 -94t-20 -117q-49 -134 -185 -235q-139 -101 -270 -101q-110 0 -164 72q-59 83 -10 213zM489 1075q24 77 115 150q80 61 170 61q63 0 90 -39q32 -44 4 -121q-35 -87 -114 -147 q-80 -64 -170 -64q-63 0 -90 37q-33 47 -5 123z" />
<glyph unicode="9" horiz-adv-x="1032" d="M-82 238q35 -116 110.5 -177t184.5 -61q194 0 405 201q98 93 179.5 219.5t134.5 271.5q68 186 66 349.5t-74 267.5q-10 15 -27 32q-81 93 -215 93q-83 0 -162 -33q-159 -65 -282 -230q-62 -84 -96.5 -180.5t-28.5 -189.5q3 -52 20.5 -99.5t50 -90t89.5 -68t130 -25.5 q95 0 192.5 47.5t178.5 130.5q-98 -237 -268 -397q-76 -73 -152.5 -112.5t-140.5 -39.5q-114 0 -152 134q-11 30 -37 44.5t-55 4.5q-29 -7 -44 -34t-7 -58zM285 950q52 143 168 238q116 98 229 98q12 0 16 -2h4q7 0 9 -2q45 -6 73 -37l7 -6q0 -2 4 -6q28 -42 28 -100 q0 -61 -24 -132q-49 -134 -166 -233q-121 -100 -230 -100q-78 0 -112 51q-59 83 -6 231z" />
<glyph unicode=":" horiz-adv-x="604" d="M156 229q-11 -30 1.5 -58t41.5 -38q20 -4 26 -4q48 0 70 49l20 60q11 29 -1.5 56.5t-41.5 37.5q-29 11 -56.5 -1.5t-37.5 -41.5zM289 608q-11 -29 1.5 -56.5t41.5 -37.5q8 -4 14 -4h12q53 0 68 47l23 61q11 29 -1.5 57t-41.5 38q-29 11 -58 -2.5t-39 -42.5z" />
<glyph unicode=";" horiz-adv-x="524" d="M-8 -281q-11 -30 1.5 -58t41.5 -38q20 -4 24 -4q24 0 43.5 13t26.5 36l115 314q10 29 -3 56t-42 38t-57 -1.5t-38 -41.5zM227 608q-11 -29 1.5 -56.5t41.5 -37.5q8 -4 15 -4h12q53 0 68 47l22 61q11 29 -1.5 57t-41.5 38q-29 11 -57.5 -2.5t-38.5 -42.5z" />
<glyph unicode="&#x3c;" horiz-adv-x="780" d="M1 518q-6 -24 5 -47l201 -428q21 -43 67 -43q16 0 31 6q29 13 39 41t-4 57l-176 379l475 406q23 20 25.5 49.5t-17.5 54.5q-20 23 -50.5 25t-53.5 -17l-516 -442q-20 -17 -26 -41z" />
<glyph unicode="=" horiz-adv-x="1058" d="M100 301q0 -31 22.5 -53.5t53.5 -22.5h572q31 0 53 22.5t22 53.5t-22 52.5t-53 21.5h-572q-31 0 -53.5 -21.5t-22.5 -52.5zM244 694q0 -31 22 -52t53 -21h572q31 0 53.5 21.5t22.5 51.5q0 31 -22.5 52.5t-53.5 21.5h-572q-31 0 -53 -21.5t-22 -52.5z" />
<glyph unicode="&#x3e;" horiz-adv-x="743" d="M0.5 80.5q-3.5 -30.5 15.5 -53.5q21 -27 58 -27q25 0 47 16l512 430q42 36 20 86l-194 443q-12 29 -41 39t-58 -2t-39 -40t3 -57l172 -391l-469 -393q-23 -20 -26.5 -50.5z" />
<glyph unicode="?" horiz-adv-x="999" d="M4 98q-10 -29 3 -56t42 -38q20 -4 25 -4q24 0 43 13t26 36l27 74q10 29 -3 56t-42 38q-29 10 -56 -3t-38 -42zM74 1018q-11 -29 1.5 -56.5t41.5 -37.5t56 3t38 42q52 132 176 223q129 94 254 94q107 0 156 -67q55 -81 8 -201q-40 -114 -131 -182q-68 -51 -195 -99 q-13 -6 -49.5 -22t-55.5 -25t-47.5 -24.5t-50.5 -32.5q-108 -80 -151 -201l-29 -78q-10 -29 3 -56t42 -38q12 -6 25 -6q24 0 43.5 13t26.5 36l28 78q31 86 107 137q40 28 166 82q159 69 229 121q121 92 178 248q35 92 28 180t-54 154q-92 131 -277 131q-174 0 -338 -119 q-169 -126 -229 -297z" />
<glyph unicode="@" horiz-adv-x="1398" d="M1 433.5q9 -145.5 83 -255.5q62 -86 156 -132t211 -46q227 0 448 156q26 17 32 47t-13 55q-17 26 -47.5 32t-55.5 -11q-193 -132 -364 -132q-164 0 -244 115q-54 79 -59 189.5t42 240.5q86 238 308 422q212 172 420 172q162 0 245 -117q54 -79 59 -188.5t-42 -239.5 q-28 -75 -90 -137q-71 -74 -138 -74q-21 0 -28 7q-8 3 -13 8q-29 43 2 137l101 272l-119 43q-52 64 -139 64q-48 0 -105 -23q-101 -46 -186 -168q-43 -62 -69.5 -138.5t-22.5 -145.5q3 -53 21.5 -97t62 -76t106.5 -32q110 0 215 100q2 -5 13 -20q56 -80 161 -80 q125 0 236 111q87 87 131 200q60 162 50 308t-85 255q-60 86 -154.5 132.5t-211.5 46.5q-124 0 -256 -53t-256 -152q-249 -199 -355 -488q-59 -162 -50 -307.5zM535 543q-31 49 4 153q30 82 94 146q66 69 123 69q19 0 28 -12q31 -49 -4 -154q-27 -77 -92 -145 q-70 -70 -125 -70q-18 0 -28 13z" />
<glyph unicode="A" horiz-adv-x="1607" d="M-176 518q0 -104 40.5 -198t112.5 -166t166.5 -113t198.5 -41q148 0 269.5 73.5t189.5 202.5q17 27 7.5 56t-36.5 43q-26 14 -55.5 4.5t-42.5 -35.5q-49 -92 -138.5 -145.5t-193.5 -53.5q-154 0 -262 111q-111 108 -111 262q0 155 111 266q109 109 262 109 q142 0 252 -102q66 -66 180 -244q81 -130 133 -193q83 -100 172 -151l-39 -107q-10 -29 3 -55t42 -37q20 -4 25 -4q53 0 68 47l39 107q35 -9 88 -9q67 0 133 17q109 31 180 102q91 87 117 180q4 15 8 29.5t5.5 21.5t2.5 9q1 7 1 13q0 22 -14 42q-18 25 -46 29 q-29 5 -54.5 -13t-29.5 -47q-2 -14 -13 -39q-16 -47 -43 -83q-86 -117 -247 -117q-126 0 -218 86q-76 68 -163 205q6 6 8 12q86 239 246 430q152 178 295 242q-22 -42 -33 -72l-262 -723q-11 -29 1.5 -55.5t41.5 -36.5q12 -4 24 -4q53 0 68 47l262 723q15 40 35 69 q36 52 78 91q32 21 32 54q0 12 -4 25q-15 52 -69 52h-68q-99 0 -211.5 -60.5t-224.5 -175.5q-199 -202 -314 -471q-99 148 -194 217q-129 94 -293 94q-104 0 -198.5 -39.5t-166.5 -111.5t-112.5 -168.5t-40.5 -200.5z" />
<glyph unicode="B" horiz-adv-x="1314" d="M-35 -134q43 -96 119 -171q80 -79 190 -124.5t240 -45.5q318 0 508 190q88 91 135 210.5t47 254.5q-1 165 -83.5 304.5t-219.5 215.5q88 55 139.5 141t51.5 187q0 166 -134 287q-135 119 -325 119q-93 0 -177.5 -31.5t-146.5 -87.5q-135 -119 -135 -287q0 -91 47 -180 q18 -27 46 -35t55 8q26 13 34 43t-6 56q-28 54 -28 108q0 106 92 182q89 76 219 76q129 0 221 -76t92 -182t-92 -182t-221 -76q-31 0 -51.5 -21.5t-20.5 -52.5t20.5 -52t51.5 -21q173 0 299 -129q125 -131 125 -316v-6q0 -102 -35 -192q-36 -94 -104 -162 q-148 -148 -404 -148q-99 0 -178 33q-81 31 -142.5 89.5t-93.5 129.5t-32 146.5t32 154.5q56 145 174 199l-16 -47q-16 -38 -16 -93q0 -18 2 -38q7 -83 49 -142q77 -108 231 -108q121 0 207 86t86 207q0 98 -59.5 176t-153.5 104q-30 8 -56.5 -7t-33.5 -44q-10 -29 4.5 -54 t44.5 -36q47 -12 77 -51.5t30 -87.5q0 -61 -43 -104.5t-103 -43.5q-80 0 -110 47q-22 29 -26 73q-1 12 -2 22q0 27 9 43l269 737q10 29 -3.5 56t-42.5 38q-29 10 -55 -3t-37 -42l-192 -524q-138 -9 -250 -121q-76 -79 -120 -188q-43 -107 -42 -213q0 -102 43 -198z" />
<glyph unicode="C" horiz-adv-x="1171" d="M-55 881q-7 -42 -7 -81q0 -111 56 -202q73 -127 219 -168q30 -155 123 -268q137 -162 344 -162q186 0 362 135q161 128 258 332q7 16 7 31q0 14 -5 26q-10 28 -36 39q-29 12 -57 1.5t-40 -36.5q-75 -169 -213 -278q-135 -107 -276 -107q-142 0 -234 111q-67 80 -91 198 q-12 61 -12 125q0 62 11 128q49 249 211 417q160 168 342 168q146 0 158 -135q1 -11 1 -22q0 -67 -32 -145q-36 -92 -108 -175q-79 -91 -192.5 -155.5t-250.5 -88.5q-29 -4 -46.5 -29t-12.5 -55q4 -29 28.5 -45.5t55.5 -11.5q157 26 293.5 102.5t236.5 194.5q88 104 133 221 q38 99 38 189q0 16 -1 32q-11 123 -91.5 195t-209.5 72q-117 0 -231.5 -54t-212.5 -157q-198 -198 -250 -494q-11 -63 -14 -139q-67 36 -99 108q-20 46 -20 99q0 28 6 59q13 73 57.5 140t110.5 114q25 17 30 45t-12 53t-46 30.5t-54 -11.5q-90 -63 -149 -153t-78 -193z" />
<glyph unicode="D" horiz-adv-x="1378" d="M-143 178q0 -71 27.5 -109.5t62.5 -52.5q29 -13 64 -13q53 0 118 30q69 31 152 102l16 -6q3 -1 9 -4t9 -4q189 -80 263 -101q73 -20 129 -20h6q123 0 235 56t195 155q84 99 131 230t47 276t-47 276t-131 232q-83 98 -195 153.5t-235 55.5q-255 0 -443 -115 q-187 -115 -262 -320q-29 -82 -29 -159q0 -15 1 -30q7 -90 55 -159q97 -135 287 -135q29 0 50 21.5t21 50.5q0 31 -21 52.5t-50 21.5q-113 0 -168 73q-32 45 -32 106q0 49 21 109q56 152 205 245t365 93q191 0 327 -168t136 -403q0 -236 -136 -404t-327 -168h-6 q-21 0 -70 11q-90 25 -172 61l-92 37q-172 76 -254 96q-52 11 -92 10q-62 0 -99 -24q-71 -49 -71 -158zM2 178q0 25 2 29l4 6q0 3 19 6h3q16 0 70 -14q5 -1 13.5 -4.5t9.5 -3.5q-50 -32 -76 -41q-23 -7 -35 -7q-4 0 -6 1q-4 4 -4 28zM317 354q4 -29 24.5 -45t45.5 -16 q37 0 59 31q72 106 119 227q147 396 150 405q6 16 12 34t9.5 29t6.5 17q9 21 9 23q4 13 4 25q0 16 -7 30q-13 26 -42 37q-13 4 -25 4q-16 0 -30 -7q-26 -13 -38 -42l-8 -21q-3 -6 -6.5 -16.5t-10 -29t-11.5 -33.5l-56 -154q-14 -37 -46 -124t-46 -126q-36 -97 -102 -194 q-13 -20 -13 -40q0 -7 2 -14z" />
<glyph unicode="E" horiz-adv-x="919" d="M-66 438q0 -180 129 -309t310 -129q263 0 456 141q93 67 153 159t79 200q1 6 1 12q0 22 -14 42q-18 24 -49 30q-29 5 -53.5 -13t-30.5 -49q-25 -158 -172 -262q-155 -115 -370 -115q-121 0 -207 86t-86 207t86 207q84 84 207 84h88q8 0 10 2q68 -39 166 -39 q31 0 52.5 21.5t21.5 50.5q0 31 -21.5 52.5t-52.5 21.5q-87 0 -148 55q164 18 275 96q72 47 110.5 109.5t38.5 128.5q0 92 -79 153q-79 54 -197 54t-213.5 -67.5t-136.5 -178.5q-10 -29 3 -56t42 -38q29 -10 55 3t37 42q25 67 83.5 108t129.5 41q52 0 76 -8q53 -19 53 -53 q0 -28 -24.5 -60.5t-69.5 -60.5q-111 -72 -281 -72q-100 0 -158 37q-90 55 -90 176q0 31 -21 52.5t-50 21.5q-31 0 -52.5 -21.5t-21.5 -52.5q0 -142 82.5 -236.5t224.5 -117.5q2 -2 6 -10q5 -10 6 -11q-163 -22 -272 -143q-111 -124 -111 -291z" />
<glyph unicode="F" horiz-adv-x="1159" d="M-123 424q0 -174 125 -299t299 -125q136 0 246 80q104 73 153 205l170 473h152q31 0 52.5 21t21.5 50q0 31 -21.5 52.5t-52.5 21.5h-98l86 236q28 82 98 147h397q31 0 52.5 21.5t21.5 52.5t-21.5 52.5t-52.5 21.5h-964q-92 0 -160 -68q-66 -66 -66 -160q0 -93 66 -159 t160 -66q91 0 159 68q23 23 23 51q0 29 -22.5 51.5t-51.5 22.5q-30 0 -53 -23t-55 -23t-55 23t-23 55t23 56t55 24h379q-34 -50 -50 -96l-102 -287h-164q-31 0 -52.5 -21.5t-21.5 -52.5q0 -29 21.5 -50t52.5 -21h111l-152 -424q-29 -85 -101 -136t-161 -51q-116 0 -195 82 q-81 78 -81 195q0 116 81 197q79 79 195 79q113 0 193 -77q23 -23 53 -23q28 0 51 23t22 52t-24 52q-121 121 -295 121t-299 -125t-125 -299z" />
<glyph unicode="G" horiz-adv-x="1325" d="M-96 879q-7 -42 -7 -82q0 -109 54 -201q73 -125 219 -166q37 -167 123 -268q66 -78 154 -119t188 -41q33 0 63 6q-65 -30 -125 -61q-124 -62 -196 -146q-73 -82 -76 -200v-6q0 -65 41 -115q43 -53 125 -53q91 0 174 73q70 61 109 158l94 258q229 100 344 184 q174 124 237 291l33 94l2 2v2q4 13 4 25q0 17 -8 32q-13 25 -39 36q-27 8 -53 -2.5t-39 -40.5v-4q-1 -1 -8 -25q-10 -24 -27 -70q-41 -106 -147 -194q-80 -67 -230 -140l121 336q11 29 -1.5 56t-41.5 37t-54 -2t-36 -41l-98 -271q-3 -3 -13 -10t-14 -10q-14 -14 -37 -27 q-53 -29 -104 -29q-142 0 -234 109q-67 80 -91 198q-11 58 -11 120q0 64 12 133q40 235 209 415q160 168 342 168q147 0 156 -135q1 -11 1 -22q0 -67 -31 -145q-35 -92 -107 -175q-79 -89 -192.5 -153.5t-250.5 -88.5q-29 -6 -46 -30.5t-11 -53.5q4 -29 28 -45.5t54 -11.5 q158 26 294 102t236 193q89 105 133 222q37 96 37 182q0 19 -2 38q-11 123 -90.5 195t-208.5 72q-117 0 -231.5 -54t-212.5 -157q-196 -199 -248 -492q-11 -63 -14 -139q-67 37 -98 108q-19 46 -19 97q0 29 6 59q12 73 56 139.5t110 114.5q25 17 30 46t-12 52 q-17 25 -46 30.5t-54 -11.5q-91 -63 -149.5 -152.5t-75.5 -193.5zM451 -426q-8 14 -8 34q0 22 10 50q17 47 67.5 86t138.5 88l-45 -125q-22 -59 -66 -98t-81 -39q-16 0 -16 4z" />
<glyph unicode="H" horiz-adv-x="1808" d="M0 618q0 -216 154 -370q74 -74 169.5 -115t202.5 -41q152 0 277.5 78.5t193.5 214.5q14 29 5.5 57t-37.5 41q-29 14 -57.5 5.5t-41.5 -37.5q-50 -99 -140 -155t-200 -56q-158 0 -268 110q-111 111 -111 268t111 271q107 110 268 110q142 0 254 -104q69 -67 185 -248 q48 -78 81 -126t88.5 -108.5t112.5 -97.5l-80 -217q-10 -29 3 -56t42 -38q20 -4 25 -4q49 0 70 49l75 207q62 -16 119 -16q77 0 135 18q119 34 185 100q85 85 116 185q4 15 8.5 30.5t6.5 22t2 8.5q2 8 2 15q0 23 -14 41q-18 24 -48 30q-30 5 -55 -13t-29 -48q-3 -18 -12 -39 q-14 -45 -45 -86q-85 -117 -252 -117q-127 0 -223 90q-76 69 -166 213l328 909q4 13 4 26q0 21 -12 42q-25 31 -62 31h-500q-91 0 -159 -68q-66 -66 -66 -160q0 -91 66 -157t159 -66q40 0 86 17q42 18 68.5 44.5t26.5 55.5t-22.5 51.5t-51.5 22.5q-28 0 -51 -23 q-22 -22 -56 -22q-32 0 -54.5 22.5t-22.5 54.5q0 33 22.5 56.5t54.5 23.5h396l-254 -706q-95 138 -195 211q-128 90 -291 90q-107 0 -203 -40.5t-169 -113.5t-113.5 -169.5t-40.5 -203.5zM1348 594q-4 -13 -4 -25q0 -16 7 -31q13 -27 42 -38q12 -4 24 -4q49 0 70 47l201 553 q5 14 5 27q-1 15 -7 29q-12 28 -41 38q-14 5 -27 5q-15 -1 -30 -7q-28 -12 -38 -41z" />
<glyph unicode="I" horiz-adv-x="1015" d="M-61 424q0 -175 124 -299q125 -125 299 -125q136 0 246 80q106 74 154 205l309 854q15 40 35 69q27 44 65 82l13 10q20 12 28 35q5 13 5 27q0 10 -3 20q-8 23 -27 37.5t-44 14.5h-541q-92 0 -160 -68q-65 -65 -65 -160q0 -94 65 -159q66 -66 160 -66q92 0 160 68 q22 22 22 51t-22 51.5t-51 22.5q-31 0 -54 -23t-55 -23t-55 23t-23 55t23 56t55 24h379q-31 -47 -49 -96l-307 -856q-29 -85 -101.5 -136t-161.5 -51q-115 0 -194 82q-82 79 -82 195q0 115 82 197q79 79 194 79q113 0 193 -77q23 -23 53 -23q29 0 50.5 22.5t21.5 53.5 q0 28 -23 51q-121 121 -295 121t-299 -125q-124 -124 -124 -299z" />
<glyph unicode="J" horiz-adv-x="958" d="M-68 -400q1 -65 33 -108q47 -65 135 -65q51 0 95 20q91 43 147 129q11 16 18 27.5t14.5 28.5t10.5 25t13 37.5t16 45.5q9 28 65 180q228 99 346 184q176 123 240 293q12 40 25 70q7 26 8 27h2v2q4 14 4 27q0 18 -8 32q-13 25 -39 33q-26 11 -52.5 -0.5t-39.5 -42.5l-2 -2 l-35 -97q-36 -105 -146 -194q-94 -73 -233 -141q24 65 72.5 197.5t54.5 148.5q82 234 121 334q121 334 127 352q16 44 34 67q36 53 78 88q20 13 27.5 35.5t1.5 46.5q-15 52 -70 52q-435 0 -712 -158q-158 -88 -240 -217t-82 -289q0 -92 35 -175.5t98 -146.5t146.5 -98 t175.5 -35q30 0 50.5 21.5t20.5 52.5q0 30 -20.5 51t-50.5 21q-128 0 -217 92q-93 90 -93 217q0 244 248 381q181 106 477 131q-26 -43 -43 -88q-18 -51 -70 -196t-81 -224q-2 -4 -68 -186l-69 -193q-13 -34 -36 -97.5t-34 -92.5q-11 -31 -33 -89.5t-32 -86.5 q-163 -69 -256 -133q-121 -83 -158 -185q-19 -41 -19 -102v-7zM76 -391q0 21 10 51q17 47 68.5 87t140.5 87q-25 -62 -31 -86l-14 -39q-21 -50 -62 -94q-45 -45 -88 -45q-12 0 -14 2q-2 0 -2 2q-8 8 -8 35z" />
<glyph unicode="K" horiz-adv-x="1669" d="M-123 436q0 -174 123 -297t295 -123q133 0 244 78q102 71 151 205l29 78q34 -125 110 -213q136 -164 349 -164q189 0 364 137q164 127 260 336q8 15 8 31q0 12 -4 24q-10 28 -39 41q-29 12 -56.5 2t-39.5 -39q-85 -177 -215 -280q-135 -107 -278 -107q-146 0 -238 111 q-60 72 -86 175q-17 68 -16 144q0 39 4 80q134 22 248 129q63 56 182 217q104 139 170 199q95 88 203 88q31 0 52 21.5t21 52.5q0 30 -21 51t-52 21q-151 0 -285 -113q-94 -79 -205 -234q-5 -7 -25.5 -34.5t-26.5 -35t-25 -32t-27 -33t-25.5 -28.5t-27.5 -29t-27 -24 t-30.5 -23t-30 -17.5t-33.5 -15.5l118 328q15 40 35 69q36 53 78 88q20 14 28 36.5t1 45.5q-6 23 -25.5 37.5t-44.5 14.5h-535q-92 0 -155 -66q-66 -66 -66 -160q0 -89 66 -155q63 -66 155 -66t158 66q23 23 23 51q0 29 -22.5 51.5t-51.5 22.5q-28 0 -51 -23 q-22 -22 -56 -22q-31 0 -53 22t-22 53q0 32 22 56t53 24h375q-31 -46 -47 -96l-305 -844v-2q-29 -84 -100.5 -134t-159.5 -50q-113 0 -193 80q-79 79 -79 194q0 114 79 193q80 80 193 80q112 0 190 -78q21 -21 54 -21q29 0 50 22t21 52q0 29 -22 51q-125 119 -293 119 q-172 0 -295 -123t-123 -295z" />
<glyph unicode="L" horiz-adv-x="1546" d="M-129 276q-15 -35 -15 -67q0 -52 38 -98q79 -91 227 -91q68 0 135 23l4 2q143 60 244 121q6 -2 18 -10q14 -9 19 -11q134 -75 204 -98q139 -47 308 -47q189 0 364 135q168 135 260 336q8 17 8 33q0 12 -4 24q-10 28 -39 39.5t-56.5 1t-39.5 -36.5q-85 -177 -215 -280 q-135 -107 -278 -107q-131 0 -246 35q-89 26 -174 78q132 111 190 274l178 490q45 126 134 201q70 62 145 65h12q73 0 105 -57q21 -39 25 -81q1 -10 0 -20q0 -30 -8 -60q-10 -38 -30.5 -77t-44 -69t-49.5 -56q-133 -130 -307 -168q-29 -6 -45 -31.5t-8 -54.5q6 -29 31.5 -45 t54.5 -10q106 25 198 76q215 120 302 301q51 105 51 200q0 87 -43 164q-38 68 -104 104q-57 31 -126 30h-24q-129 -10 -238 -108.5t-166 -254.5l-133 -362q-79 26 -119 96q-23 44 -23 96q0 31 9 67q24 92 102 179q23 24 21.5 52.5t-25.5 49.5q-23 21 -51.5 20t-48.5 -24 q-117 -126 -143 -258q-9 -43 -9 -85q0 -89 42 -167q62 -115 196 -164q-49 -129 -172 -223q-108 -83 -307 -170q-42 -12 -91 -12h-20q-64 3 -90 37q-4 8 -2 12q9 20 42 36.5t79 16.5q98 0 178 -18q29 -8 54.5 8t31.5 45q8 29 -8 54.5t-45 31.5q-95 23 -211 23 q-85 0 -153.5 -37.5t-98.5 -98.5z" />
<glyph unicode="M" horiz-adv-x="1757" d="M-135 424q0 -174 125 -299t299 -125q133 0 246 80q103 70 153 205l230 635l26 81l41 117q23 67 92 119q65 49 133 49q50 0 68 -26q12 -17 12 -41q0 -22 -10 -50l-381 -1052q-10 -29 3 -56t42 -38q15 -5 25 -5q24 0 43 12.5t26 35.5l373 1034q3 4 10 18q23 67 92 119 q65 49 134 49q49 0 67 -26q12 -17 12 -41q0 -22 -10 -50l-381 -1052q-16 -53 -16 -97q0 -111 80 -188q77 -80 188 -80q31 0 52.5 21.5t21.5 50.5q0 31 -21.5 52.5t-52.5 21.5q-51 0 -87 35.5t-36 86.5q0 25 9 46h2l378 1052q20 52 20 101q0 66 -38 124q-66 91 -188 91 q-131 0 -244 -99l-4 8q-66 91 -189 91q-71 0 -143.5 -33.5t-128.5 -91.5q-1 3 -4.5 8t-3.5 6t-3.5 6t-4.5 8q-70 97 -211 97q-90 0 -158 -68q-66 -66 -66 -160q0 -93 66 -159t158 -66q31 0 52 21.5t21 52.5t-21 52t-52 21q-32 0 -55 23t-23 55t23.5 56t54.5 24q49 0 67 -12 q21 -18 23 -23q20 -29 20 -84q-1 -11 -1 -25q-6 -74 -40 -173l-229 -635q-29 -86 -101.5 -137.5t-160.5 -51.5q-116 0 -195 82q-82 79 -82 197q0 115 82 197q79 79 195 79q113 0 192 -79q21 -21 54 -21q28 0 51 23t22 52t-24 52q-119 119 -295 119t-299 -123 q-125 -125 -125 -299z" />
<glyph unicode="N" horiz-adv-x="1351" d="M-135 422q0 -174 125 -299t299 -125q135 0 248 80q103 70 153 205l232 637q3 11 13 44.5t15 51.5l39 104q23 67 92 119q65 49 133 49q50 0 68 -26q12 -18 12 -42q0 -22 -10 -51l-381 -1054q-18 -47 -18 -97q0 -110 80 -190t190 -80q31 0 52.5 21.5t21.5 52.5t-21.5 52.5 t-52.5 21.5q-51 0 -87 35.5t-36 86.5q0 30 8 43v2l383 1057q20 53 20 100q0 68 -40 126q-66 90 -189 90q-72 0 -144 -33.5t-130 -91.5q-1 3 -4.5 8t-3.5 6t-3.5 6t-4.5 8q-70 97 -211 97q-92 0 -160 -68q-66 -66 -66 -160q0 -93 66 -159t160 -66q31 0 52 21.5t21 52.5 t-21 52t-52 21q-32 0 -55 23t-23 55t23.5 56t54.5 24q50 0 67 -14q21 -18 23 -21q23 -31 23 -85q0 -76 -44 -197l-229 -639q-29 -86 -101 -137.5t-163 -51.5q-116 0 -195 82q-82 79 -82 197q0 117 82 199q79 79 195 79q112 0 194 -79q23 -23 52.5 -22t52.5 24t22 52t-24 52 q-121 121 -297 121q-174 0 -299 -125q-58 -58 -91.5 -136.5t-33.5 -164.5z" />
<glyph unicode="O" horiz-adv-x="1275" d="M-62 403q5 -157 78 -264q47 -67 118.5 -103t158.5 -36q188 0 377 123q46 -4 61 -4q192 0 360.5 79.5t297.5 231.5q16 21 16 46q-1 5 -1 9q-4 30 -26.5 50t-52.5 17t-49 -28q-70 -83 -160 -141q-129 -88 -272 -109q106 122 160 278q30 88 30 166q0 62 -18 118 q-17 72 -75 118t-140 52q-13 1 -26 1q-98 0 -195 -67q-123 -83 -193 -272q-34 -93 -34 -181q-1 -18 1 -37q8 -106 66 -184q17 -25 47 -30t55 14q25 17 30 47t-13 55q-35 50 -39 119v15q0 62 26 132q29 93 101 168q71 75 146 75q7 0 15 -1q75 -10 84 -59q2 -2 2 -4q0 -3 3 -6 q10 -31 10 -69q0 -64 -29 -147q-63 -177 -233 -305q-163 -123 -332 -123q-98 0 -153.5 75.5t-55.5 201.5q0 123 53 268q83 236 275 418q182 176 350 176q69 0 115 -33q63 -48 84 -147q6 -29 31.5 -45t56.5 -10q29 6 45 31.5t10 56.5q-31 139 -121 217t-221 78 q-214 0 -436 -199q-104 -95 -189.5 -222.5t-138.5 -271.5q-60 -168 -60 -315v-23z" />
<glyph unicode="P" horiz-adv-x="1505" d="M-82 410q0 -168 121 -289t289 -121q134 0 239 76q102 74 150 200l51 142q113 -58 238 -58q108 0 205.5 41.5t172.5 116.5t116.5 173t41.5 206q0 109 -41.5 207.5t-116.5 173.5q-75 74 -172.5 115t-205.5 41t-206 -41t-173 -115q-75 -75 -116.5 -173.5t-41.5 -207.5 q0 -31 21.5 -52.5t52.5 -21.5t52 21.5t21 52.5q0 78 31 151t84 126q112 112 275 112q79 0 151 -29.5t125 -82.5t83 -125.5t30 -151.5q0 -161 -113 -274q-54 -54 -126 -84.5t-150 -30.5q-104 0 -189 49l121 332v2q15 47 41 80q43 58 96 86l19 10q30 13 39 41q11 28 -1.5 56 t-41.5 40q-10 3 -18 4.5t-13.5 2t-13.5 -2.5t-11.5 -5t-15 -8t-17.5 -9q-30 -16 -65 -49q-97 -82 -137 -201l-219 -610q-2 0 -2 -2q-26 -80 -95 -128.5t-155 -48.5q-110 0 -185 78q-77 74 -77 185t77 188q76 76 185 76q107 0 184 -74q22 -22 53 -22q29 0 51 22 q23 23 22 52.5t-24 52.5q-116 116 -286 116q-168 0 -289 -121t-121 -290z" />
<glyph unicode="Q" horiz-adv-x="1304" d="M-164 315q0 -72 41 -131.5t109 -99.5q135 -80 284 -80q195 0 346 51q103 -157 195 -235q129 -109 293 -109q65 0 131 17q112 34 176 98q91 91 113 178l16 59q1 6 1 11q0 23 -14 42q-17 25 -46 31q-30 5 -55 -12.5t-29 -46.5l-11 -39q-9 -36 -43 -82q-82 -110 -239 -110 q-116 0 -201 73q-64 53 -149 183q174 95 295 268q92 130 165 330q64 172 64 322v9q-2 154 -74 258q-90 134 -262 134q-103 0 -212 -50.5t-208 -142.5q-101 -93 -182 -214t-131 -257v-2q-2 -2 -2 -4l-6 -29q-8 -25 -15 -55q-6 -29 10.5 -54.5t45.5 -31.5t54.5 10t31.5 45 q3 20 10 45l8 29q87 235 262 399q81 78 168.5 122t165.5 44q93 0 143 -70.5t50 -193.5q-1 -116 -52.5 -259t-121.5 -257q-111 -179 -287 -272q-104 161 -199 239q-132 109 -305 109h-6q-144 0 -236 -76t-92 -193zM-18 315q0 61 59 95q46 28 123 28h6q122 0 211 -73 q75 -62 154 -183q-109 -32 -265 -32q-94 0 -186 47q-102 50 -102 118z" />
<glyph unicode="R" horiz-adv-x="1232" d="M-190 414q0 -169 120 -289q121 -121 289 -121q133 0 238 76q100 72 149 201l127 348q71 -84 98 -133q31 -60 31 -109q0 -16 -4 -31l-129 -360q-29 -80 -29 -152q0 -79 35 -149q51 -105 139 -148q15 -6 33 -6q45 0 66 41q13 26 3 55t-38 41l-23 17q-26 19 -41 47 q-29 43 -29 100q0 48 21 105l129 362q2 0 2 4q12 37 12 77q0 108 -87 235q161 12 268 129q110 116 110 274q0 169 -118 287q-119 119 -287 119t-287 -119t-119 -287q0 -29 21.5 -50.5t52.5 -21.5q29 0 50.5 21.5t21.5 50.5q0 105 76 184q76 76 184 76q105 0 184 -76 q76 -79 76 -184q0 -108 -76 -184q-79 -76 -184 -76q-47 0 -104 23l36 98v4q15 47 41 80q42 58 97 86l18 10q27 12 37 41q11 28 -1 56t-40 38q-9 3 -17 4.5t-13 2t-13.5 -3t-12 -5t-15.5 -7.5t-17 -9q-32 -18 -66 -49q-102 -90 -135 -199l-221 -610q-30 -80 -97.5 -129 t-152.5 -49q-112 0 -186 77q-78 75 -78 187q0 110 78 188q76 76 186 76q108 0 184 -76q23 -23 54 -20q29 0 50 22t21 51q0 30 -22 52q-119 116 -287 116t-289 -121q-120 -120 -120 -288z" />
<glyph unicode="S" horiz-adv-x="1071" d="M-92 -193q0 -31 21.5 -52t52.5 -21t52 21t21 52q0 24 11 66q17 60 49 119q7 14 12.5 22t17.5 20.5t15 16.5q7 7 39 43q129 -92 278 -92q95 0 181.5 36.5t150.5 100.5t100.5 150.5t36.5 181.5q0 193 -96 389q108 144 156 234q32 60 32 106q0 97 -69 166q-71 68 -166 68 q-96 0 -164 -68q-70 -70 -70 -166q0 -54 17 -112.5t34 -93.5t54 -105q32 -63 47.5 -96.5t38 -91t32 -113.5t9.5 -117q0 -133 -94 -227q-97 -97 -230 -97q-98 0 -180 56q271 305 379 438q19 23 16 52.5t-26 49.5q-25 19 -55 16t-50 -26q-208 -251 -364 -424q-43 78 -43 162 q0 136 96 229q95 95 227 95q31 0 52.5 21t21.5 52t-21.5 52.5t-52.5 21.5q-195 0 -332 -137q-139 -139 -139 -334q0 -144 88 -272l-67 -74l-7 -6q-4 -4 -18 -29q-15 -23 -39 -72q-55 -116 -55 -211zM717 1200q0 35 25.5 61.5t60.5 26.5q37 0 62.5 -25.5t25.5 -62.5 q0 -6 -2 -12q-3 -8 -17 -33q-22 -42 -96 -147q-59 115 -59 192z" />
<glyph unicode="T" horiz-adv-x="937" d="M-164 424q0 -174 125 -299q123 -123 297 -123q136 0 246 80q104 73 153 205l318 866q29 83 92 141h449q89 0 157 68q66 66 66 160q0 91 -66 157t-157 66q-92 0 -158 -66q-23 -23 -23 -51q0 -30 22 -52t52 -22t51 21q21 24 56 24q32 0 54.5 -22.5t22.5 -54.5t-23 -56 t-54 -24l-1008 4q-90 0 -158 -68q-65 -65 -65 -159q0 -93 65 -158q66 -66 158 -66q43 0 86 19q94 41 94 100q0 29 -22.5 51.5t-51.5 22.5q-28 0 -51 -23q-22 -22 -55 -22q-32 0 -55 22.5t-23 53.5q0 35 22.5 58t55.5 23h377q-34 -53 -47 -98l-318 -866q0 -2 -2 -2 q-29 -85 -99.5 -136t-160.5 -51q-116 0 -195 82q-79 79 -79 195q0 115 79 194q80 80 195 80q116 0 193 -77q21 -21 53 -21q29 0 50 22.5t21 53.5q0 27 -22 49q-121 121 -295 121q-84 0 -161.5 -33.5t-135.5 -91.5t-91.5 -135.5t-33.5 -161.5z" />
<glyph unicode="U" horiz-adv-x="915" d="M-246 997q0 -91 66 -157t160 -66t157 66q23 23 23 51q0 29 -22.5 51.5t-51.5 22.5q-28 0 -51 -23q-28 -22 -55 -22q-32 0 -55 22.5t-23 54.5q0 35 22.5 58.5t55.5 23.5h526q72 0 123 51.5t51 124.5q0 71 -49 123q-52 49 -125 49q-36 0 -66 -12q-30 -11 -44 -24.5 t-34 -44.5q-21 -31 -47 -111l-4 -8h-331q-92 0 -160 -68q-66 -66 -66 -162zM0 367q-22 -61 -22 -117q0 -79 45 -146q73 -104 217 -104q146 0 270 98q4 -10 16 -26q47 -72 148 -72q84 0 164 57q72 52 110 142l107 290q4 13 4 25q0 16 -7 32q-13 28 -42 38t-56.5 -3t-38.5 -42 l-104 -289q-17 -41 -58 -72t-79 -31q-22 0 -29 9q-8 13 2 43q0 4 2 4l60 207l335 925q11 29 -1.5 57t-41.5 38q-12 4 -24 4q-16 0 -32 -8q-27 -14 -38 -42l-370 -1017q-37 -94 -121 -154q-89 -66 -176 -66q-70 0 -97 41q-18 25 -18 61q0 30 12 68l221 605q10 29 -3 56 t-42 38t-56.5 -1.5t-37.5 -41.5zM469 1227q14 42 20 49q1 1 4.5 2t4.5 2q2 2 8 2q26 0 26 -27q0 -28 -26 -28h-37z" />
<glyph unicode="V" horiz-adv-x="976" d="M-451 1001q0 -91 68 -159t160 -68q94 0 160 66q22 22 22 53q0 29 -22.5 51.5t-51.5 22.5q-30 0 -53 -23q-28 -22 -55 -22q-35 0 -57.5 22t-22.5 57q0 32 24 56t56 24h354v-778q0 -32 -6 -59q-10 -46 -33 -84q-10 -13 -14 -13q-31 0 -52.5 -21t-21.5 -52t21.5 -52.5 t52.5 -21.5h127q184 0 319 111q52 43 87 94t48 94l306 838q0 2 2 4q5 15 10 20q14 25 37 45q83 80 239 80q31 0 52.5 21.5t21.5 52.5t-21.5 52.5t-52.5 21.5q-123 0 -204 -35q-151 -65 -199 -160q-22 -43 -25 -51l-305 -840v-2l-12 -27q-17 -31 -45 -63q-82 -94 -211 -106 q27 76 27 153v778h28q71 0 125 54q51 51 51 122t-51 125q-55 52 -125 52t-125 -52q-51 -51 -51 -125v-28h-354q-92 0 -160 -68t-68 -160zM279 1229v28q0 29 28 29q27 0 27 -29q0 -11 -8.5 -19.5t-18.5 -8.5h-28z" />
<glyph unicode="W" horiz-adv-x="1454" d="M-1303 1438q0 -182 70 -345.5t195 -287.5q124 -125 286.5 -194.5t345.5 -69.5t359 20q30 5 48.5 28.5t14.5 53.5q-5 31 -27.5 49.5t-51.5 14.5q-185 -19 -343 -19q-152 0 -288 58.5t-242 162.5q-105 103 -163 239.5t-58 289.5q0 152 58 288.5t163 241.5t241.5 163 t288.5 58q153 0 290.5 -58.5t240.5 -162.5q104 -105 161.5 -241.5t57.5 -288.5q0 -76 -18 -158q-33 -139 -86 -272q-21 -46 -21 -50l-4 -4l-213 -587q-22 -61 -22 -117q0 -79 45 -146q73 -104 217 -104q79 0 159 33.5t146 93.5q13 -23 14 -23q73 -104 217 -104q147 0 271 98 l8 -12q2 -6 6 -14q54 -72 149 -72q84 0 164 57q82 58 109 142l106 288q11 29 -1.5 57t-41.5 38q-29 11 -56.5 -1.5t-37.5 -41.5l-106 -291q-13 -40 -55 -70.5t-81 -30.5q-21 0 -28 9q-8 10 2 43v4l59 207l221 602q246 105 424 192q81 40 232 112t182 87q240 116 378 182 t337 154t360 149q565 215 975 215q202 0 447 -53q31 -8 56.5 8t31.5 47q2 9 2 17q0 20 -11 38q-16 26 -47 33q-253 58 -479 58q-424 0 -1012 -219q-65 -24 -136.5 -53.5t-128 -53t-142.5 -62.5t-131 -59t-145 -67.5t-133 -63.5t-147 -70.5t-138 -66.5q-395 -193 -705 -334 l47 131q10 29 -3 56t-42 38q-29 10 -56 -3t-38 -42l-369 -1015q-37 -94 -121 -154q-89 -66 -176 -66q-69 0 -96 41q-19 25 -19 60q0 29 13 67l4 9l192 534q11 29 -1.5 56.5t-41.5 37.5t-56 -3t-38 -42l-196 -540q-37 -94 -121 -154q-89 -66 -176 -66q-68 0 -97 41 q-17 23 -17 58q0 30 13 69l211 586q13 27 29 68q27 68 47 131q64 198 64 338q0 182 -69.5 345.5t-193.5 289.5q-126 124 -289.5 193t-345.5 69q-183 0 -345.5 -69t-286.5 -193q-126 -126 -195.5 -289t-69.5 -346z" />
<glyph unicode="X" horiz-adv-x="1282" d="M2 70q1 -30 22.5 -50t51.5 -20q33 0 55 25l1135 1286q20 23 18.5 53.5t-24.5 50.5q-21 19 -50 19h-4q-31 -2 -51 -25l-410 -467l-16 287v6q-4 37 -10 53q-23 68 -77.5 106t-127.5 38q-137 0 -258 -117q-92 -92 -141 -215l-111 -303q-4 -13 -4 -25q0 -16 7 -32 q13 -28 42 -38.5t56.5 2t37.5 41.5l111 304q25 77 100 155q80 80 160 80q30 0 45 -12q15 -15 25 -53l20 -435l-584 -661q-18 -18 -18 -45v-8zM621 459l12 -228v-4q13 -108 80 -167.5t172 -59.5q164 0 311 141q120 117 174 265l57 157q5 13 5 26q0 15 -8 31q-14 28 -42 39 q-13 4 -25 4q-16 0 -31 -7q-27 -13 -38 -42l-57 -159q-57 -151 -166 -232q-98 -76 -180 -76q-42 0 -64 17q-33 26 -41 80l-12 223q-1 31 -24 51.5t-54 18.5q-29 -2 -49.5 -24.5t-19.5 -53.5z" />
<glyph unicode="Y" horiz-adv-x="1009" d="M-242 1001q0 -91 66 -157t160 -66q91 0 157 66q23 23 23 53q0 29 -22.5 51.5t-51.5 22.5q-28 0 -51 -23q-24 -24 -55 -24q-32 0 -55 22.5t-23 54.5q0 35 22.5 58.5t55.5 23.5h524q72 0 123 51t51 123t-51 123.5t-123 51.5q-69 0 -121 -52q-9 -10 -22 -32 q-24 -36 -48 -109l-2 -10h-331q-94 0 -160 -66t-66 -162zM-20 -389v-6q0 -66 43 -119q45 -55 127 -55q52 0 96 20q85 38 149 131q12 17 19 28.5t15 30t10.5 24.5t13.5 39t16 46l66 182q241 110 352 189q181 130 243 299l35 96l2 4q4 14 4 26q0 18 -8 32q-14 26 -41 34 q-24 12 -52.5 1t-41.5 -44v-2q-1 -3 -8 -26q-12 -27 -27 -72q-41 -109 -139 -189.5t-248 -152.5q71 195 72 197l74 202q22 61 70 194t71 198q120 330 151 415q11 29 -1.5 56.5t-41.5 37.5q-13 4 -25 4q-16 0 -31 -7q-27 -13 -38 -42q0 -9 -33 -94l-86 -231 q-151 -409 -245 -674l-2 -4q0 -4 -2 -6q-36 -93 -119 -154q-84 -65 -176 -65q-68 0 -99 41q-17 25 -17 60q0 30 13 69l205 565q11 29 -1.5 56.5t-41.5 37.5t-56 -3t-38 -42l-205 -565q-22 -61 -22 -117q0 -79 45 -145q74 -103 217 -103q93 0 178 43v-4q-2 -2 -2 -6 q-13 -6 -62.5 -29.5t-74.5 -36.5q-143 -68 -222 -153q-78 -84 -81 -211zM127 -383q0 21 10 51q17 50 68.5 90t142.5 88q-26 -68 -31 -88q-8 -23 -16 -39q-15 -50 -61 -96q-45 -45 -90 -45q-11 0 -13 2q-2 0 -4 2q-6 9 -6 35zM471 1229q14 39 21 49q6 6 16 6q27 0 27 -27 q0 -11 -8.5 -19.5t-18.5 -8.5h-37z" />
<glyph unicode="Z" horiz-adv-x="1345" d="M-142 190q6 -44 36 -79q79 -91 227 -91q64 0 135 23q2 0 4 2q136 59 240 121l24 -19q86 -61 172 -98q115 -49 260 -49q157 0 299 129q143 130 224 344q5 15 5 29q0 15 -6 28q-12 27 -40 37q-29 11 -57 -1.5t-38 -41.5q-58 -160 -172 -274q-107 -107 -215 -107 q-106 0 -192 35q-69 27 -137 76q133 112 194 278l62 170h186q31 0 51.5 20.5t20.5 51.5q0 30 -21 51t-51 21h-133l61 172q54 135 328 266l12 6q5 0 9 4q33 17 41 47t-3 45q-8 24 -30 40q-14 10 -33 9q-12 0 -25 -3q-10 -5 -20 -7q-155 -41 -325 -41h-23q-125 0 -299 27 l-105 12q-58 7 -90 7q-89 0 -155 -66t-66 -158t66 -155q66 -66 155 -66q92 0 156 64q22 22 22 51t-22 51.5t-51 22.5t-52 -23t-53 -23q-32 0 -54 23t-22 55t22.5 55t53.5 23q38 0 174 -16q221 -29 361 -29h18q-90 -80 -125 -172l-80 -221h-170q-30 0 -50.5 -21t-20.5 -51 q0 -31 20 -51.5t51 -20.5h117l-43 -120q-50 -138 -170 -232q-100 -79 -311 -172q-43 -15 -84 -15q-18 0 -35 3q-58 9 -82 37q-4 8 -2 12q8 19 41.5 35t79.5 16q96 0 176 -18q29 -6 54.5 10t31.5 45q7 29 -8.5 53.5t-44.5 32.5q-89 21 -209 21q-86 0 -154.5 -37t-97.5 -99 q-14 -31 -14 -62q-1 -11 1 -22z" />
<glyph unicode="[" horiz-adv-x="1705" />
<glyph unicode="\" horiz-adv-x="831" d="M-5509 -737q-4 -13 2 -37q7 -26 29.5 -39.5t40.5 -13.5q45 0 65 36q0 1 27 39q21 32 80 82q145 119 331 119h1913l-24 -74q-11 -29 1.5 -56.5t41.5 -37.5q20 -4 24 -4q49 0 70 49l121 338q11 29 -1.5 55.5t-41.5 36.5q-29 11 -57 -1.5t-38 -41.5l-43 -116h-1966 q-141 0 -252 -48q-185 -83 -278 -213q-42 -60 -45 -73zM-2683 -625q-11 -29 1.5 -56.5t41.5 -37.5q20 -4 25 -4q48 0 69 49l43 123h1950q319 0 565 92q197 74 332 191q137 118 214 267t77 302q0 174 -100 291q-107 125 -293 125q-80 0 -148.5 -56.5t-97.5 -148.5 q-10 -29 3.5 -55t43.5 -37q29 -10 54 3.5t36 43.5q18 45 47.5 74.5t61.5 29.5q126 0 192 -86q55 -72 55 -184q0 -121 -63 -240.5t-176 -216.5q-125 -105 -295 -166q-217 -81 -508 -81h-1896l24 67q11 29 -1.5 55.5t-41.5 36.5q-29 11 -56.5 -1.5t-37.5 -41.5z" />
<glyph unicode="_" horiz-adv-x="831" />
<glyph unicode="a" d="M-41 291q3 -77 31 -141t88 -107t143 -43q153 0 309 143q8 -35 31 -67q52 -76 158 -76q117 0 223 102q77 74 123 185l70 192q5 14 5 27q0 16 -6 30q-12 28 -41.5 37.5t-57 -3.5t-38.5 -42l-69 -192q-30 -83 -99 -141q-62 -50 -110 -50q-22 0 -29 7l-8 8q-12 18 -12 55 t14 72l225 620q11 29 -1.5 56.5t-41.5 37.5t-56 -3t-38 -42l-24 -67q-5 5 -5 6l-6 6q-73 105 -205 105q-78 0 -153 -37q-160 -74 -281 -252q-64 -95 -104 -209q-36 -104 -35 -198v-19zM106 350q6 60 33 127q59 165 183 279q113 104 210 104q56 0 86 -43q28 -39 30 -109 q0 -5 1 -10q0 -67 -33 -170q-58 -162 -182 -276q-55 -51 -111.5 -79t-101.5 -28q-56 0 -86 43q-19 26 -27 64q-5 22 -4 50q-1 22 2 48z" />
<glyph unicode="b" horiz-adv-x="958" d="M-39 293q2 -57 19 -108t48 -93t82 -67t115 -25q79 0 162.5 40.5t159.5 113.5q10 -2 33 -2h34q51 0 122 22t138 62q169 99 224 245q4 13 4 25q0 16 -7 31q-13 27 -42 38t-57 -1.5t-38 -41.5q-33 -81 -120 -145q-69 -51 -164 -78q58 90 96 199q34 98 33 191v20 q-7 122 -74.5 207.5t-189.5 85.5q-125 0 -234 -82l148 405q11 29 -1.5 57t-41.5 38q-12 4 -24 4q-16 0 -32 -8q-28 -14 -39 -42l-311 -854q-43 -120 -43 -224v-13zM110 274q-2 15 -1 31q0 44 12 103q53 -150 233 -218q-67 -43 -129 -43q-59 0 -86 41q-23 32 -29 86zM244 535 q0 64 26.5 124.5t71.5 106.5q44 45 96 71.5t101 26.5q56 0 86 -43q19 -26 27 -64q5 -22 4 -50q0 -23 -2 -49q-6 -60 -33 -128q-40 -113 -129 -223q-118 19 -175 70q-73 58 -73 158z" />
<glyph unicode="c" horiz-adv-x="860" d="M-37 272q8 -89 53 -149q41 -59 107.5 -91t146.5 -32q227 0 445 141q99 65 173.5 153t110.5 185q5 14 5 27q0 16 -6 30q-12 28 -41.5 37.5t-56.5 -3.5t-38 -42q-58 -153 -231 -268q-179 -115 -361 -115q-91 0 -135 62q-29 42 -30 106q0 70 36 164q59 165 183 279 q113 104 213 104q47 0 61 -20q8 -8 8 -21q0 -18 -2 -24q-4 -31 14.5 -55t49.5 -29q29 -5 53.5 13.5t28.5 49.5q4 20 4 39q0 68 -45 123q-58 70 -172 70q-152 0 -306 -138q-150 -132 -227 -340q-44 -118 -44 -212q0 -23 3 -44z" />
<glyph unicode="d" horiz-adv-x="1003" d="M-41 293q2 -57 19 -108t48 -93t82 -67t115 -25q153 0 312 143q8 -31 30 -67q52 -76 158 -76q117 0 225 102q82 76 123 187l70 192q5 14 5 27q0 16 -6 30q-12 28 -42 37q-29 11 -56.5 -1.5t-37.5 -41.5l-72 -194q-22 -64 -80 -125q-63 -66 -129 -66q-22 0 -29 7l-8 8 q-12 15 -12 53q0 39 14 74l70 192l311 854q10 29 -3 56.5t-42 38.5q-12 4 -24 4q-16 0 -32 -8q-27 -14 -38 -42l-178 -491q-4 4 -4 8l-7 6q-73 105 -204 105q-79 0 -154 -37q-161 -74 -285 -256q-64 -95 -104 -209q-36 -104 -35 -198v-19zM106 298q0 5 1 10q0 68 32 173 q58 162 185 279q113 104 213 104q56 0 86 -43q18 -26 26 -64q4 -21 4 -49q-1 -22 -3 -49q-6 -60 -32 -129q-59 -167 -182 -276q-55 -51 -111.5 -79t-101.5 -28q-59 0 -86 41q-29 40 -31 110z" />
<glyph unicode="e" horiz-adv-x="813" d="M-45 328v-13q0 -119 53 -192q85 -123 262 -123q224 0 418 125q192 124 262 315q4 13 4 25q0 15 -7 31q-13 28 -42 39q-29 10 -56 -3.5t-38 -42.5q-51 -144 -207 -243q-162 -101 -334 -101q-18 0 -71 11q-45 11 -72.5 55t-26.5 113q257 9 457 168q96 73 150.5 160.5 t54.5 166.5t-51 127q-63 60 -181 60q-151 0 -305 -138q-152 -136 -227 -340q-40 -103 -43 -200zM133 471q2 2 2 4l2 2q59 166 182 279q113 104 211 104q28 0 52 -4q15 -6 24 -12q10 -8 10 -25q0 -39 -38 -98t-111 -115q-56 -45 -127 -80q-92 -43 -207 -55z" />
<glyph unicode="f" horiz-adv-x="731" d="M-307 -383v-6q0 -67 41 -119q44 -55 129 -55q92 0 173 72t116 165l73 205q23 62 23 120q0 23 -4 46q6 -2 20 -2h21q253 0 444 221q46 54 62 78q38 56 67 117q8 16 8 20q5 15 5 29t-5 28q-12 27 -41 37q-29 12 -56.5 1.5t-37.5 -39.5l-8 -15q-3 -5 -21 -41 q-33 -65 -86 -123q-147 -166 -331 -166q-69 0 -105 21q148 63 260 170q148 141 209 311q35 93 70 191l37 98q6 15 16 45l76 209q17 46 17 88q0 64 -38 119q-67 88 -192 88q-122 0 -227 -78q-91 -68 -129 -166l-381 -1048q0 -2 -2 -2l-185 -510q-15 -46 -18 -109zM-162 -377 q0 21 10 51l170 467q49 -43 66 -75q15 -33 15 -70q0 -32 -11 -66l-74 -204q-20 -54 -64.5 -98t-86.5 -44q-11 0 -13 2t-6 2q-6 9 -6 35zM86 330l330 905q15 48 76 96q64 51 143 51q57 0 72 -24q11 -14 11 -35q0 -17 -7 -37l-78 -211l-6 -15q-6 -15 -11 -30q-33 -94 -34 -98 q-36 -101 -70 -189q-56 -157 -193 -270q-93 -79 -233 -143z" />
<glyph unicode="g" d="M-43 285q3 -77 30.5 -141t88 -107t145.5 -43q115 0 234 82l-33 -88q-184 -78 -258 -127q-122 -81 -160 -187q-19 -41 -19 -103v-6q1 -66 33 -112q44 -67 138 -67q95 0 180 75q69 61 110 162l93 254q79 36 115.5 53t100 51.5t109.5 67.5q166 122 228 287l34 98v2 q5 15 5 28q0 16 -7 30q-14 24 -41 36q-26 11 -53.5 -0.5t-40.5 -42.5l-2 -4l-35 -96q-37 -105 -135 -186q-83 -72 -207 -129l146 401v2l157 432q11 29 -1.5 56.5t-41.5 37.5t-56 -3t-38 -42l-26 -69q-1 1 -2.5 4t-2.5 4l-4 6q-73 105 -206 105q-79 0 -154 -37 q-161 -74 -285 -256q-64 -94 -104 -209q-35 -103 -35 -200v-19zM104 291v9q0 68 33 175q58 162 185 279q117 104 213 104q56 0 86 -41q28 -40 30 -110v-8q0 -68 -33 -175q-58 -164 -184 -276q-55 -51 -111.5 -79t-101.5 -28q-59 0 -86 41q-28 40 -31 109zM139 -463 q-8 11 -8 30q0 22 12 56q31 90 209 174l-43 -123q-22 -60 -68.5 -100.5t-84.5 -40.5q-17 0 -17 4z" />
<glyph unicode="h" d="M-162 98q-4 -13 -4 -25q0 -16 7 -31q13 -27 42 -38q20 -4 25 -4q48 0 69 49l203 557q38 103 144 182q102 76 206 76q88 0 125 -57q19 -29 19 -69q0 -37 -17 -83l-114 -317q-22 -62 -25 -129v-6q0 -77 49 -139q51 -64 148 -64q119 0 225 102q78 75 123 187l70 192 q5 14 5 27q0 16 -6 30q-12 28 -42 37q-29 11 -57 -1.5t-38 -41.5l-71 -194q-22 -64 -80 -125q-63 -66 -129 -66q-17 0 -27 5q-3 1 -10 8q-12 19 -11 55.5t13 73.5l117 317q24 65 24 127q1 14 -1 28q-6 76 -48 136q-80 115 -242 115q-111 0 -225 -62l139 385q11 29 -1.5 57 t-41.5 38q-12 4 -24 4q-16 0 -32 -8q-27 -14 -38 -42z" />
<glyph unicode="i" horiz-adv-x="374" d="M-96 252q-2 -17 -2 -35q0 -27 6 -57q10 -48 35 -84q51 -76 155 -76q118 0 224 102q76 74 122 183l70 194q5 14 5 27q-1 16 -7 30q-12 28 -41 37.5t-56 -3.5t-38 -42l-70 -190q-35 -88 -100 -143q-59 -50 -109 -50q-19 0 -26 7q-8 2 -13 8q-10 19 -9 54.5t13 70.5l228 622 q10 29 -3 55t-42 37t-55.5 -1.5t-36.5 -41.5l-228 -618q-16 -42 -22 -86zM250 1225q-5 -14 -5 -27q1 -15 7 -30q12 -28 41 -38q20 -4 24 -4q24 0 43 13.5t25 36.5l29 71q4 13 4 25q0 16 -7 30q-13 26 -42 37q-14 5 -27 5q-15 0 -29 -6q-27 -12 -37 -42z" />
<glyph unicode="j" horiz-adv-x="501" d="M-537 -434v-6q0 -66 43 -119q45 -55 127 -55q94 0 181 77q71 65 110 162l90 248q233 99 338 172q174 120 236 291l51 139q5 14 5 27q0 15 -6 30q-13 27 -42 37q-29 11 -56.5 -1.5t-37.5 -41.5l-51 -139q-43 -110 -144 -192q-78 -63 -223 -132l307 842q10 29 -3 56t-42 38 t-56.5 -1.5t-37.5 -41.5l-354 -970q-32 -13 -136 -62q-142 -65 -219 -147t-80 -211zM-391 -428q0 23 10 53q34 87 211 170l-45 -121q-21 -61 -68 -102q-45 -39 -84 -39q-12 0 -14 2q-2 0 -2 2q-8 8 -8 35zM346 1225q-5 -14 -5 -27q0 -15 7 -30q12 -28 41 -38q20 -4 27 -4 q23 0 41.5 13.5t25.5 36.5l27 71q5 14 5 27q0 15 -7 30q-12 27 -41 37q-14 5 -27 5q-15 0 -30 -6q-27 -13 -37 -42z" />
<glyph unicode="k" horiz-adv-x="1005" d="M-152 98q-5 -13 -5 -25q0 -15 7 -28q18 -45 68 -45q41 0 64 37q0 1 3 5.5t10.5 16.5t14.5 23q24 39 80 98q142 150 295 193l21 -31l100 -231l4 -9q27 -41 85.5 -70.5t143.5 -29.5q101 0 191 68q87 65 125 166l90 247q5 14 5 27q0 15 -6 30q-12 28 -42 38 q-29 11 -56.5 -1.5t-37.5 -41.5l-90 -248q-23 -63 -78 -101q-48 -36 -101 -36q-34 0 -63.5 8.5t-38.5 17.5l-94 217q115 12 215 90q100 77 141 191q22 58 22 109q0 71 -42 130q-65 95 -197 95q-120 0 -233 -82q-112 -81 -158 -201q-21 -57 -21 -107q0 -63 33 -116 q-89 -31 -188 -101l340 934q11 29 -1.5 57t-41.5 38q-12 4 -24 4q-16 0 -32 -8q-28 -14 -39 -42zM430 573q-10 18 -10.5 43.5t10.5 57.5q27 77 102 133q75 53 150 53q52 0 78 -31q12 -20 12 -48q0 -25 -10 -56q-28 -78 -103 -131q-74 -55 -149 -55q-19 0 -55 -4z" />
<glyph unicode="l" horiz-adv-x="536" d="M-55 260q0 -96 47 -166q68 -94 194 -94q154 0 291 131q112 112 162 246l37 102q4 13 4 25q0 16 -7 31q-13 27 -42 38t-56.5 -1.5t-37.5 -41.5l-37 -102q-38 -103 -125 -190q-95 -91 -189 -91q-51 0 -73 31q-23 33 -23 86q0 49 23 113l348 958q11 29 -1.5 57t-41.5 38 q-12 4 -24 4q-16 0 -32 -8q-27 -14 -38 -42l-351 -956q-28 -86 -28 -168z" />
<glyph unicode="m" horiz-adv-x="1314" d="M-164 98q-5 -14 -5 -27q1 -15 7 -29q12 -28 41 -38q20 -4 27 -4q52 0 67 47l228 625q27 77 102 133q78 55 152 55q49 0 77 -33q14 -22 14 -50q0 -25 -11 -56l-228 -623q-10 -29 3 -56t42 -38q20 -4 25 -4q52 0 67 47l228 625q27 77 102 133q78 55 152 55q50 0 78 -33 q12 -19 12 -47q0 -26 -10 -59l-140 -383q-22 -62 -22 -118v-13q0 -78 37 -131q53 -76 155 -76q118 0 224 102q75 72 122 185l70 192q5 14 5 27q-1 16 -7 30q-12 28 -41 37q-29 11 -56.5 -1.5t-37.5 -41.5l-70 -192q-22 -64 -80 -125q-63 -66 -129 -66q-16 0 -26 5 q-4 2 -11 8q-12 19 -12 47q0 33 17 80l139 385q21 57 21 108q0 72 -42 131q-65 95 -196 95q-145 0 -267 -109q-1 3 -4 8t-4 6q-69 95 -196 95t-240 -86q-4 4 -4 10l-6 8q-50 68 -137 68q-31 0 -52.5 -21.5t-21.5 -52.5q0 -29 21.5 -50.5t52.5 -21.5q16 0 16 -6q6 -9 6 -33 q0 -23 -10 -53q-2 -2 -2 -6q0 -6 -2 -8l-6 -15q-1 -3 -3.5 -9t-3.5 -9z" />
<glyph unicode="n" horiz-adv-x="847" d="M-160 98q-5 -14 -5 -27q1 -15 7 -29q12 -28 41 -38q20 -4 27 -4q52 0 67 47l228 625q27 77 102 133q78 55 150 55q56 0 78 -33q14 -19 14 -49q0 -25 -10 -57l-142 -383q-22 -61 -22 -131q0 -78 37 -131q57 -76 157 -76q118 0 224 102q75 72 122 185l70 192q5 14 5 27 q0 16 -6 30q-12 28 -42 37q-29 11 -56.5 -1.5t-37.5 -41.5l-70 -192q-26 -66 -82 -125q-63 -66 -127 -66q-18 0 -28 5q-2 1 -9 8q-12 19 -12 48q0 33 15 79l141 385q20 58 21 108q0 72 -42 131q-65 95 -198 95q-125 0 -238 -86q-4 4 -4 10l-6 8q-50 68 -137 68 q-31 0 -52.5 -21.5t-21.5 -52.5q0 -29 21.5 -50.5t52.5 -21.5q16 0 16 -6q6 -9 6 -33q0 -23 -10 -53q-2 -2 -2 -6q0 -6 -2 -8l-6 -15l-6 -18z" />
<glyph unicode="o" horiz-adv-x="935" d="M-43 291q3 -77 31 -141t88 -107t143 -43q127 0 256 82q6 -2 19 -2h18q202 0 362 127q134 103 201 272q4 13 4 25q0 16 -7 30q-13 26 -42 37t-56.5 -1.5t-37.5 -41.5q-33 -91 -108 -168t-179 -112q89 139 89 254q0 45 -13 86q-14 56 -59.5 92.5t-106.5 40.5q-8 1 -16 1 q-83 0 -159 -59q-82 -64 -126 -184q-24 -67 -24 -129q0 -14 2 -28q6 -75 47 -132q12 -20 22 -28q-53 -17 -86 -17q-56 0 -86 43q-19 26 -27 64q-5 22 -4 50q0 22 2 48q6 60 33 127q59 166 182 279q113 104 211 104q90 0 111 -102q6 -29 31.5 -45.5t54.5 -10.5q30 6 46.5 31 t10.5 55q-23 101 -90.5 159.5t-163.5 58.5q-78 0 -153 -37q-160 -74 -281 -252q-64 -95 -104 -209q-36 -104 -35 -198v-19zM397 428q27 76 66.5 111.5t79.5 35.5q4 0 6 -2q30 0 33 -18l2 -6l2 -4q5 -17 5 -38q0 -39 -18 -91q-37 -100 -129 -176q-25 11 -43 34q-21 30 -21 71 q0 37 17 83z" />
<glyph unicode="p" horiz-adv-x="944" d="M-307 -330q-4 -13 -4 -25q0 -16 7 -31q13 -27 42 -38q13 -4 25 -4q16 0 31 7q27 13 38 42l178 492l4 -5q3 -6 4 -10q73 -104 207 -104q115 0 240 86q61 -86 192 -86q129 0 248 123q94 99 139 219l35 96v4q5 13 5 27q0 13 -6 27q-11 28 -42 40q-26 11 -53.5 -0.5 t-40.5 -42.5v-4h-2q-2 -2 -8 -24q-5 -13 -27 -72q-40 -111 -114 -178q-74 -68 -134 -68q-45 0 -61 13q-13 10 -16 26q56 56 104 135q53 85 88 191q31 95 31 186v21q-2 57 -19 108t-48 93t-82 67t-115 25q-140 0 -295 -132q-7 32 -27 64q-50 68 -139 68q-29 0 -50.5 -21.5 t-21.5 -52.5t21.5 -52.5t50.5 -21.5q12 0 14 -2t4 -2q6 -9 6 -35q0 -23 -10 -53zM108 293v9q0 68 33 173h2q59 165 183 279q117 104 213 104q56 0 86 -41q28 -40 31 -110v-10q0 -68 -33 -173q-58 -163 -185 -276q-55 -51 -111.5 -79t-101.5 -28q-56 0 -86 43q-28 40 -31 109 z" />
<glyph unicode="q" horiz-adv-x="1136" d="M-41 287q2 -57 19 -108t48 -93t82 -67t115 -25q105 0 234 82l-164 -447q-14 -43 -14 -85v-15q5 -59 40.5 -101t106.5 -42q86 0 156 67q60 57 84 127l96 264q17 40 17 87q0 30 -7 63h8q151 0 283 117q104 91 156 225l36 96v4q3 13 3 25q0 16 -6 31q-10 27 -40 38 q-24 12 -53.5 0t-40.5 -45q-2 0 -2 -2q-2 -2 -8 -24q-8 -19 -27 -74q-43 -113 -141 -184q-86 -62 -160 -62q-36 0 -69 8q-48 11 -58 39l193 531q22 60 68 100.5t83 40.5q31 0 52.5 21.5t21.5 52.5t-21.5 52.5t-52.5 21.5q-66 0 -128 -38.5t-107 -101.5q-1 3 -4 9.5t-4 9.5 q-1 2 -4 5t-4.5 5.5t-2.5 5.5q-73 105 -206 105q-79 0 -154 -37q-161 -74 -285 -256q-64 -94 -104 -209q-35 -103 -35 -198v-19zM106 292v10q0 68 33 173q58 162 185 279q113 104 213 104q56 0 86 -41q28 -40 31 -110v-10q0 -68 -33 -173h-3q-59 -167 -182 -276 q-55 -51 -111.5 -79t-101.5 -28q-59 0 -86 41q-28 40 -31 110zM426 -467q-1 5 -1 11q0 15 7 36l160 440q40 -37 40 -82q0 -21 -9 -44l-97 -265q-13 -37 -42.5 -66.5t-57.5 -29.5z" />
<glyph unicode="r" horiz-adv-x="729" d="M-6 489q-4 -13 -4 -25q0 -16 7 -31q13 -27 42 -38t56.5 1.5t37.5 41.5l107 295l12 37q10 30 12 35l82 -33l4 -2q52 -22 62 -45q7 -7 -2 -23l-134 -368q-22 -62 -22 -118v-13q0 -78 37 -131q54 -76 158 -76q121 0 227 102q90 90 121 185l71 194q5 14 5 27q-1 16 -7 30 q-12 28 -41 37q-30 11 -58 -1.5t-38 -41.5l-70 -194q-23 -67 -81 -125q-66 -66 -129 -66q-19 0 -27 4q-2 1 -10 9q-12 19 -11 54.5t15 72.5l133 368q12 35 12 67q0 37 -16 70q-24 53 -78 86q-45 28 -66 33l-104 43q5 30 5 64q0 15 -1 30q-2 68 -39 123q-17 24 -59 45 q-23 10 -47 10q-28 0 -58 -14q-48 -24 -70 -68q-18 -36 -19 -73q0 -8 1 -16q11 -104 121 -179l-31 -90z" />
<glyph unicode="s" horiz-adv-x="874" d="M4 489q-4 -13 -4 -25q0 -16 7 -30q13 -26 42 -37q20 -4 25 -4q48 0 69 49l90 263q22 -26 111 -115l72 -72q75 -82 110 -147q15 -32 15 -61q0 -39 -27 -74l-8 8q-4 2 -10 8q-48 42 -102 56q-34 9 -64 10q-16 0 -32 -3q-42 -8 -77 -30q-47 -32 -69 -83q-14 -32 -14 -63 q0 -18 5 -35q19 -63 82 -88q40 -16 92 -16q100 0 172 31q45 -31 101 -31q131 0 235 113q89 96 131 231l29 82q3 11 7 23t5 14l15 33q5 14 5 27q-1 15 -7 29q-12 26 -41 36q-14 5 -27 5q-39 0 -68 -48l-4 -8l-10 -23q-2 -5 -16 -45.5t-27 -79.5q-29 -81 -65 -133 q-59 -80 -117 -100q47 66 53 133q1 9 1 18q0 93 -73 199q-56 78 -170 188q-90 90 -124 135q-19 26 -21 37q-6 16 -4 21l8 20q10 29 -3 56t-42 38q-13 4 -25 4q-16 0 -31 -7q-27 -13 -38 -42zM289 150q10 10 24 16q11 4 22 4q24 0 50 -18q-45 -5 -68 -5q-22 0 -28 3z" />
<glyph unicode="t" horiz-adv-x="620" d="M-20 401q-29 -80 -29 -147q0 -86 47 -150q73 -104 238 -104q204 0 364 195q61 78 107 165q36 68 53 121q4 13 4 25q0 16 -7 31q-13 27 -42 38t-56.5 -1.5t-37.5 -41.5q-10 -34 -40.5 -96.5t-72.5 -120.5q-126 -168 -272 -168q-80 0 -108 30t-28 81q0 40 19 92l207 570 h266q30 0 52 21t22 50q0 30 -22 52t-52 22h-213l96 270q11 29 -1.5 57t-41.5 38q-12 4 -24 4q-16 0 -32 -8q-27 -14 -38 -42l-117 -319h-133q-31 0 -52.5 -21.5t-21.5 -52.5q0 -29 21.5 -50t52.5 -21h80z" />
<glyph unicode="u" horiz-adv-x="860" d="M-63 334q-19 -57 -19 -107q0 -74 41 -133q61 -94 197 -94q130 0 256 98q4 -8 6 -10l6 -12q52 -76 158 -76q117 0 223 102q77 74 123 185l69 192q5 14 5 27q0 14 -6 28q-12 26 -42 37q-29 11 -56.5 -1.5t-37.5 -41.5l-69 -192q-30 -83 -99 -141q-62 -50 -110 -50 q-20 0 -27 7q-3 1 -10 8q-12 18 -11 54t13 73l227 620q10 29 -3 56t-42 38q-13 4 -25 4q-16 0 -30 -7q-26 -13 -37 -42l-227 -620v-2q-28 -78 -103 -131q-78 -58 -151 -58q-56 0 -78 33q-14 21 -14 49q0 26 12 58l225 622q11 29 -1.5 56.5t-41.5 37.5q-13 4 -25 4 q-16 0 -31 -7q-27 -13 -38 -42z" />
<glyph unicode="v" horiz-adv-x="905" d="M-154 98q-4 -12 -4 -24q0 -21 13 -43q25 -31 61 -31q212 0 416 135q9 -24 30 -51q71 -84 203 -84q136 0 258 90q107 78 148 191l71 198q5 14 5 27q-1 16 -7 30q-12 28 -41 37.5t-56 -3.5t-38 -42l-71 -196q-24 -67 -93 -121q-84 -66 -176 -66q-61 0 -90 31q-16 16 -16 62 q150 137 213 315l129 354q11 29 -1.5 56.5t-41.5 37.5q-13 4 -25 4q-16 0 -31 -7q-27 -13 -38 -42l-129 -354q-61 -154 -191 -272l-2 -2q-19 -19 -59 -47q-110 -84 -258 -123l272 749q11 29 -1.5 56.5t-41.5 37.5q-13 4 -25 4q-16 0 -31 -7q-27 -13 -38 -42z" />
<glyph unicode="w" horiz-adv-x="1327" d="M-68 334q-19 -56 -19 -106q0 -74 42 -134q61 -94 197 -94q144 0 266 106q2 -6 8 -12q64 -94 197 -94t256 98q2 -6 14 -22q51 -76 156 -76q117 0 223 102q77 74 123 185l69 192q5 14 5 27q-1 16 -7 30q-12 28 -41 37.5t-56 -3.5t-38 -42l-70 -192q-31 -84 -98 -141 q-62 -50 -110 -50q-20 0 -27 7q-3 1 -10 8q-12 18 -11 54t13 73l227 620q11 29 -1.5 56.5t-41.5 37.5q-13 4 -25 4q-16 0 -31 -7q-27 -13 -38 -42l-227 -620v-2q-28 -78 -103 -131q-78 -58 -151 -58q-50 0 -78 33q-14 21 -14 49q0 26 12 58l227 622q10 29 -3 56t-42 38 q-13 4 -25 4q-16 0 -30 -7q-26 -13 -37 -42l-227 -622q-28 -78 -103 -131q-78 -58 -151 -58q-56 0 -78 33q-14 21 -14 49q0 26 12 58l225 622q11 29 -1.5 56.5t-41.5 37.5q-13 4 -25 4q-16 0 -31 -7q-27 -13 -38 -42z" />
<glyph unicode="x" horiz-adv-x="1009" d="M0 502q-5 -14 -5 -27q1 -15 7 -29q12 -26 41 -36q29 -11 56.5 1.5t37.5 41.5l96 266q22 59 68.5 99t83.5 40q14 0 16 -2q7 -7 7 -14q0 -4 2 -6v-2l61 -322l-272 -397q-17 -27 -11 -56q4 -29 25 -44t47 -15q39 0 59 33l191 276l29 -139q11 -78 61.5 -124t128.5 -46 q119 0 225 102q77 74 123 185l70 192q4 13 4 25q0 16 -7 31q-13 27 -42 38t-55.5 -1.5t-36.5 -41.5l-72 -194q-22 -64 -80 -125q-63 -66 -129 -66q-20 0 -31.5 8.5t-15.5 36.5v5l-55 284l256 373q17 25 11 55t-32 47q-25 17 -54 11.5t-46 -31.5l-174 -252l-33 174 q-3 21 -10 37q-17 54 -58.5 83.5t-101.5 29.5q-93 0 -176 -76q-74 -65 -113 -162z" />
<glyph unicode="y" horiz-adv-x="1028" d="M-63 258q2 -47 18 -91.5t47.5 -85t87 -65t127.5 -24.5q115 0 227 67l-22 -63q-175 -78 -260 -137q-125 -84 -162 -187q-20 -42 -20 -104v-6q1 -65 34 -111q44 -67 138 -67q95 0 180 75q69 61 110 162l97 266q244 111 356 189q182 130 244 301l35 96v4q5 15 5 28 q0 16 -7 29q-14 25 -42 37q-26 11 -53.5 -0.5t-40.5 -42.5q0 -2 -2 -2v-2q-2 -2 -8 -24q-12 -27 -27 -72q-43 -114 -151 -201q-82 -69 -238 -145l113 307l188 518q10 29 -3 56t-42 38q-13 4 -25 4q-16 0 -31 -7q-27 -13 -38 -42l-188 -516q-47 -123 -152 -211 q-107 -90 -215 -90q-71 0 -108 49q-25 36 -27 88q-1 5 -1 10q0 48 21 103l189 516q10 29 -3 56t-42 38q-13 4 -25 4q-16 0 -31 -7q-27 -13 -38 -42l-187 -514q-29 -80 -29 -155q0 -14 1 -27zM127 -430q0 21 10 51q19 50 70.5 90t142.5 88l-45 -127q-22 -60 -68.5 -100.5 t-84.5 -40.5q-17 0 -17 4q-8 8 -8 35z" />
<glyph unicode="z" horiz-adv-x="774" d="M-276 -432v-5q0 -43 16 -81q16 -40 57.5 -69t100.5 -29q101 0 192 88q62 57 103 155l92 256q237 99 344 174q174 124 237 297l47 129q5 13 5 26q0 16 -8 32q-14 29 -42 39q-29 11 -57.5 -2.5t-38.5 -42.5l-47 -129q-45 -121 -164 -209q-86 -66 -256 -142q-4 25 -14 43 q97 72 141 189l139 387q12 34 12 65q0 38 -18 72q-23 53 -84 92q-46 28 -71 33l-115 45q4 32 4 60q0 83 -31 137q-30 51 -75 67q-25 9 -49 9q-31 0 -62 -14q-55 -26 -78 -83q-12 -28 -12 -60q0 -18 4 -38q15 -91 129 -162l-12 -43q-2 -7 -17 -47l-108 -299q-11 -30 1.5 -58 t41.5 -38q29 -11 57.5 2.5t38.5 42.5l111 299q12 40 24 75l94 -36l6 -2q57 -19 70 -48q0 -4 2 -6t-2 -14l-141 -387q-22 -60 -69.5 -101.5t-86.5 -41.5q-31 0 -53.5 -22.5t-22.5 -53.5t22.5 -53.5t53.5 -22.5q13 0 15 -2t4 -2q9 -12 6 -45q-43 -19 -137 -62 q-144 -67 -218 -149q-81 -87 -81 -215zM-121 -461q-8 12 -8 31q0 23 12 57q17 50 71 91.5t142 82.5l-45 -123q-24 -57 -63 -96q-47 -47 -90 -47q-19 0 -19 4z" />
<glyph unicode="{" horiz-adv-x="1705" />
<glyph unicode="&#xa3;" horiz-adv-x="1562" d="M-125 276q-39 -90 23 -165q79 -91 227 -91q68 0 135 23l4 2q125 54 201 96l6 -4q1 -1 3 -2t3 -2l31 -18q92 -53 164 -78q101 -37 243 -37q143 0 285 104q140 105 215 271q12 29 1.5 56.5t-36.5 39.5q-29 13 -56.5 3.5t-39.5 -38.5q-62 -134 -162 -211q-104 -80 -207 -80 q-105 0 -173.5 21t-141.5 63q162 122 227 303l179 490q46 127 133 201q70 62 145 65q82 5 117 -57q17 -26 44.5 -34t53.5 5q27 14 36 42.5t-7 55.5q-37 68 -103.5 104t-150.5 30q-129 -10 -238 -108.5t-166 -254.5l-63 -174h-223q-31 0 -52.5 -21.5t-21.5 -52.5 q0 -29 21.5 -50t52.5 -21h170l-62 -168q-50 -138 -170 -232q-97 -80 -313 -174q-50 -15 -111 -12q-64 3 -90 37q-4 8 -2 12q9 20 42 36.5t79 16.5q99 0 178 -18q29 -8 54.5 8t31.5 45q8 29 -8 54.5t-45 31.5q-95 23 -211 23q-85 0 -153.5 -37.5t-98.5 -98.5zM1004 823 q0 -29 21 -50t50 -21h201q30 0 51 21t21 50q0 31 -20.5 52.5t-51.5 21.5h-201q-29 0 -50 -21.5t-21 -52.5z" />
<glyph unicode="&#xa9;" horiz-adv-x="1705" d="M257 558.5q7 -86.5 54 -152.5q43 -63 114 -96.5t159 -33.5q176 0 340 119q77 56 136 132t89 161q35 93 27.5 179.5t-54.5 152.5q-92 129 -274 129q-172 0 -336 -119q-165 -120 -227 -293q-35 -92 -28 -178.5zM420 688q23 63 69 121.5t105 101.5q130 95 254 95 q110 0 156 -70q54 -80 8 -199q-46 -131 -172 -223q-129 -94 -256 -94q-109 0 -158 75t-6 193zM483 643q4 -51 37.5 -95.5t100.5 -55.5q15 -5 20 -5h21q87 0 165 60q25 17 29.5 46t-12.5 54q-19 25 -48.5 29.5t-54.5 -12.5q-53 -42 -94 -31q-9 3 -12 6l-6 4q-11 19 5.5 54.5 t55.5 64.5q53 42 94 31l15 -5l4 -6q18 -25 45.5 -32t54.5 10q25 18 32.5 45.5t-9.5 54.5q-44 62 -115 74q-54 10 -102 -4q-107 -26 -177 -121q-56 -76 -49 -166z" />
<glyph unicode="&#xad;" horiz-adv-x="751" d="M61 557q0 -31 21.5 -52.5t52.5 -21.5h481q31 0 52.5 21.5t21.5 52.5t-21.5 52.5t-52.5 21.5h-481q-31 0 -52.5 -21.5t-21.5 -52.5z" />
<glyph unicode="&#xae;" horiz-adv-x="1249" d="M179 831q7 -87 54 -153q91 -129 273 -129q176 0 340 119q77 56 136 132t89 161q35 93 28 179t-55 152q-92 129 -272 129q-175 0 -338 -118q-165 -120 -227 -293q-35 -92 -28 -179zM342 961q52 132 176 223q129 94 254 94q108 0 154 -70q52 -73 10 -198 q-50 -133 -174 -224q-129 -94 -256 -94q-109 0 -158 75t-6 194zM442 870q-11 -29 1.5 -55.5t41.5 -36.5q12 -6 25 -6q52 0 68 49l16 43l33 -55q18 -27 45.5 -35.5t52.5 8.5q27 18 35 46t-8 55l-19 30q73 39 96 107q26 70 -12 124t-106 54h-150zM657 1038l5 15h20 q-15 -15 -25 -15z" />
<glyph unicode="&#xb0;" horiz-adv-x="604" d="M82 1110q-3 -92 59 -135q60 -45 138 -21q64 24 114 90q48 63 51 142q0 88 -59 135q-57 45 -139 18q-64 -21 -115 -88q-49 -65 -49 -141zM207 1106q2 35 25.5 70t54.5 45q13 4 20 2q12 -12 12 -35q-2 -35 -26 -70t-55 -45q-13 -5 -22.5 2t-8.5 31z" />
<glyph unicode="&#xc0;" horiz-adv-x="1607" d="M-176 518q0 104 40.5 200.5t112.5 168.5t166.5 111.5t198.5 39.5q164 0 293 -94q95 -69 194 -217q115 269 314 471q112 115 224.5 175.5t211.5 60.5h68q54 0 69 -52q16 -50 -28 -79l-41 -41q-51 -60 -72 -119l-262 -723q-15 -47 -68 -47q-12 0 -24 4q-29 10 -41.5 36.5 t-1.5 55.5l262 723q11 30 33 72q-143 -64 -295 -242q-160 -191 -246 -430q-2 -6 -8 -12q87 -137 163 -205q92 -86 218 -86q161 0 247 117q19 27 27 45q22 50 29 77q4 29 29.5 47t54.5 13q28 -3 47 -29q4 -7 7 -12.5t5 -10t2 -11v-10t-2 -13t-3.5 -14.5l-6 -20t-6.5 -24 q-15 -53 -62 -118q-57 -76 -131 -121q-101 -60 -237 -60q-53 0 -88 9l-39 -107q-15 -47 -68 -47q-5 0 -25 4q-29 11 -42 37t-3 55l39 107q-89 51 -172 151q-52 63 -133 193q-114 178 -180 244q-110 102 -252 102q-153 0 -262 -109q-111 -111 -111 -266q0 -154 111 -262 q108 -111 262 -111q104 0 193.5 53.5t138.5 145.5q13 26 42.5 35.5t55.5 -4.5q27 -14 36.5 -43t-7.5 -56q-68 -129 -189.5 -202.5t-269.5 -73.5q-104 0 -198.5 41t-166.5 113t-112.5 166t-40.5 198zM1318.5 1738.5q3.5 -30.5 27.5 -48.5l170 -138q23 -20 53 -17t49 26 q10 13 12 24q17 45 -22 80l-170 139q-23 18 -54 15t-51 -27q-18 -23 -14.5 -53.5z" />
<glyph unicode="&#xc1;" horiz-adv-x="1607" d="M-176 518q0 104 40.5 200.5t112.5 168.5t166.5 111.5t198.5 39.5q164 0 293 -94q95 -69 194 -217q115 269 314 471q112 115 224.5 175.5t211.5 60.5h68q54 0 69 -52q16 -50 -28 -79l-41 -41q-51 -60 -72 -119l-262 -723q-15 -47 -68 -47q-12 0 -24 4q-29 10 -41.5 36.5 t-1.5 55.5l262 723q11 30 33 72q-143 -64 -295 -242q-160 -191 -246 -430q-2 -6 -8 -12q87 -137 163 -205q92 -86 218 -86q161 0 247 117q19 27 27 45q22 50 29 77q4 29 29.5 47t54.5 13q28 -3 47 -29q4 -7 7 -12.5t5 -10t2 -11v-10t-2 -13t-3.5 -14.5l-6 -20t-6.5 -24 q-15 -53 -62 -118q-57 -76 -131 -121q-101 -60 -237 -60q-53 0 -88 9l-39 -107q-15 -47 -68 -47q-5 0 -25 4q-29 11 -42 37t-3 55l39 107q-89 51 -172 151q-52 63 -133 193q-114 178 -180 244q-110 102 -252 102q-153 0 -262 -109q-111 -111 -111 -266q0 -154 111 -262 q108 -111 262 -111q104 0 193.5 53.5t138.5 145.5q13 26 42.5 35.5t55.5 -4.5q27 -14 36.5 -43t-7.5 -56q-68 -129 -189.5 -202.5t-269.5 -73.5q-104 0 -198.5 41t-166.5 113t-112.5 166t-40.5 198zM1608 1585q2 -11 12 -24q19 -23 49 -26t53 17l170 138q24 18 27.5 48.5 t-14.5 53.5q-20 24 -51 27t-54 -15l-170 -139q-39 -35 -22 -80z" />
<glyph unicode="&#xc2;" horiz-adv-x="1607" d="M-176 518q0 -104 40.5 -198t112.5 -166t166.5 -113t198.5 -41q148 0 269.5 73.5t189.5 202.5q17 27 7.5 56t-36.5 43q-26 14 -55.5 4.5t-42.5 -35.5q-49 -92 -138.5 -145.5t-193.5 -53.5q-154 0 -262 111q-111 108 -111 262q0 155 111 266q109 109 262 109 q142 0 252 -102q66 -66 180 -244q81 -130 133 -193q83 -100 172 -151l-39 -107q-10 -29 3 -55t42 -37q20 -4 25 -4q53 0 68 47l39 107q35 -9 88 -9q67 0 133 17q109 31 180 102q91 87 117 180q4 15 8 29.5t5.5 21.5t2.5 9q5 30 -12.5 55t-46.5 29q-29 5 -54.5 -13t-29.5 -47 q-2 -14 -13 -39q-16 -47 -43 -83q-86 -117 -247 -117q-126 0 -218 86q-76 68 -163 205q6 6 8 12q86 239 246 430q152 178 295 242q-22 -42 -33 -72l-262 -723q-11 -29 1.5 -55.5t41.5 -36.5q12 -4 24 -4q53 0 68 47l262 723q15 40 35 69q36 52 78 91q44 29 28 79 q-15 52 -69 52h-68q-99 0 -211.5 -60.5t-224.5 -175.5q-199 -202 -314 -471q-99 148 -194 217q-129 94 -293 94q-104 0 -198.5 -39.5t-166.5 -111.5t-112.5 -168.5t-40.5 -200.5zM1222 1614.5q-4 -24.5 13 -51.5l6 -9q4 -4 6 -4q41 -30 82 0l207 148l201 -148q40 -30 80 0 q14 0 14 13q20 26 16 51.5t-30 42.5l-240 180q-22 14 -41 14q-27 0 -41 -14l-248 -180q-21 -18 -25 -42.5z" />
<glyph unicode="&#xc4;" horiz-adv-x="1607" d="M-176 518q0 104 40.5 200.5t112.5 168.5t166.5 111.5t198.5 39.5q164 0 293 -94q95 -69 194 -217q115 269 314 471q112 115 224.5 175.5t211.5 60.5h68q54 0 69 -52q16 -50 -28 -79l-41 -41q-51 -60 -72 -119l-262 -723q-15 -47 -68 -47q-12 0 -24 4q-29 10 -41.5 36.5 t-1.5 55.5l262 723q11 30 33 72q-143 -64 -295 -242q-160 -191 -246 -430q-2 -6 -8 -12q87 -137 163 -205q92 -86 218 -86q161 0 247 117q19 27 27 45q22 50 29 77q4 29 29.5 47t54.5 13q28 -3 47 -29q4 -7 7 -12.5t5 -10t2 -11v-10t-2 -13t-3.5 -14.5l-6 -20t-6.5 -24 q-15 -53 -62 -118q-57 -76 -131 -121q-101 -60 -237 -60q-53 0 -88 9l-39 -107q-15 -47 -68 -47q-5 0 -25 4q-29 11 -42 37t-3 55l39 107q-89 51 -172 151q-52 63 -133 193q-114 178 -180 244q-110 102 -252 102q-153 0 -262 -109q-111 -111 -111 -266q0 -154 111 -262 q108 -111 262 -111q104 0 193.5 53.5t138.5 145.5q13 26 42.5 35.5t55.5 -4.5q27 -14 36.5 -43t-7.5 -56q-68 -129 -189.5 -202.5t-269.5 -73.5q-104 0 -198.5 41t-166.5 113t-112.5 166t-40.5 198zM1366 1632q-10 -29 3 -56t42 -38q20 -4 25 -4q48 0 69 49l21 59 q11 29 -1.5 57t-41.5 38t-56 -3t-38 -42zM1606 1632q-10 -29 3 -56t42 -38q20 -4 24 -4q49 0 70 49l20 59q11 29 -1.5 57t-41.5 38t-56 -3t-38 -42z" />
<glyph unicode="&#xc6;" horiz-adv-x="2152" d="M-176 520q0 -103 40 -197.5t111 -166.5t166 -113t201 -41q174 0 307 102q138 101 187 263q10 29 -4 54t-44 36q-29 10 -54 -3.5t-36 -43.5q-37 -118 -135 -190.5t-221 -72.5q-156 0 -264 111q-111 108 -111 262q0 155 111 266q109 109 264 109q138 0 250 -104 q31 -29 65.5 -74t54 -74.5t60.5 -93.5q81 -130 133 -193q83 -100 172 -151l-39 -105q-11 -29 1.5 -55.5t41.5 -36.5q12 -6 25 -6q53 0 68 49l38 105q24 -4 39 -4q6 -1 20.5 -2.5t20.5 -2.5q61 -69 145.5 -108t180.5 -39q259 0 450 139q91 66 150 157t78 196q5 29 -13 54 t-47 29t-53.5 -13t-30.5 -46q-24 -153 -170 -260q-154 -113 -364 -113q-121 0 -205 84t-84 205q0 41 12 82l5 14v2l2 5q32 84 105.5 134t164.5 50h86q8 0 10 2q74 -39 164 -39q29 0 50.5 21.5t21.5 50.5q0 30 -21 50.5t-51 20.5q-83 0 -145 56q164 18 272 94 q69 47 107 108.5t38 124.5q0 94 -79 152q-68 53 -193 53q-30 0 -51 -21t-21 -51q0 -29 21 -50t51 -21q50 0 74 -8q28 -10 40.5 -21t12.5 -33q0 -26 -24 -58t-68 -60q-104 -70 -277 -70q-65 0 -104 14l39 109q15 40 35 69q36 56 67 80l13 11q42 30 26 79q-15 52 -70 52h-67 q-99 0 -210.5 -60.5t-223.5 -175.5q-199 -199 -314 -469q-101 147 -194 215q-129 94 -291 94q-106 0 -201 -40t-166 -111q-70 -70 -110.5 -166.5t-40.5 -200.5zM922 582q6 6 6 12q115 306 336 524q24 -85 92 -147l-146 -391q-4 -18 -6 -23q-18 -62 -18 -125q0 -66 18 -125 q-84 27 -145 92t-137 183zM1393 1221q45 30 75 43q-18 -35 -32 -72l-23 -64q-20 39 -20 93zM1458 834l25 65q26 -12 69 -18q3 -9 11 -21q-69 -11 -105 -26z" />
<glyph unicode="&#xc7;" horiz-adv-x="1171" d="M-55 881q-27 -159 49 -283q73 -127 219 -168q30 -155 123 -268q137 -162 344 -162q186 0 362 135q161 128 258 332q12 29 2 56.5t-36 39.5q-29 12 -57 1.5t-40 -36.5q-75 -169 -213 -278q-135 -107 -276 -107q-142 0 -234 111q-67 79 -91 197.5t-1 253.5q49 249 211 417 q160 168 342 168q146 0 158 -135q6 -76 -30.5 -167.5t-108.5 -174.5q-79 -91 -192.5 -155.5t-250.5 -88.5q-29 -4 -46.5 -29t-12.5 -55q4 -29 28.5 -45.5t55.5 -11.5q157 26 293.5 102.5t236.5 194.5q88 104 133 221t37 221q-11 123 -91.5 195t-209.5 72q-117 0 -231.5 -54 t-212.5 -157q-198 -198 -250 -494q-11 -63 -14 -139q-67 37 -98.5 108.5t-14.5 157.5q13 73 57.5 140t110.5 114q25 17 30 45t-12 53t-46 30.5t-54 -11.5q-90 -63 -149 -153t-78 -193zM516 -242q-11 -29 1.5 -56.5t41.5 -37.5q20 -4 27 -4q51 0 67 49l54 146q10 29 -3 56 t-42 38q-29 10 -56.5 -3t-38.5 -42z" />
<glyph unicode="&#xc8;" horiz-adv-x="919" d="M-66 438q0 167 111 291q109 121 272 143q-1 1 -6 11q-4 8 -6 10q-142 23 -224.5 117.5t-82.5 236.5q0 31 21.5 52.5t52.5 21.5q29 0 50 -21.5t21 -52.5q0 -121 90 -176q58 -37 158 -37q170 0 281 72q45 28 69.5 60.5t24.5 60.5q0 34 -53 53q-24 8 -76 8q-71 0 -129.5 -41 t-83.5 -108q-11 -29 -37 -42t-55 -3q-29 11 -42 38t-3 56q41 111 136.5 178.5t213.5 67.5t197 -54q79 -61 79 -153q0 -66 -38.5 -128.5t-110.5 -109.5q-111 -78 -275 -96q61 -55 148 -55q31 0 52.5 -21.5t21.5 -52.5q0 -29 -21.5 -50.5t-52.5 -21.5q-98 0 -166 39 q-2 -2 -10 -2h-88q-123 0 -207 -84q-86 -86 -86 -207t86 -207t207 -86q215 0 370 115q147 104 172 262q6 31 30.5 49t53.5 13q31 -6 49 -30.5t13 -53.5q-19 -108 -79 -200t-153 -159q-193 -141 -456 -141q-181 0 -310 129t-129 309zM376 1738.5q3 -30.5 27 -48.5l170 -138 q23 -20 53.5 -17t49.5 26q10 13 12 24q17 45 -22 80l-170 139q-23 18 -54 15t-51 -27q-18 -23 -15 -53.5z" />
<glyph unicode="&#xc9;" horiz-adv-x="919" d="M-66 438q0 167 111 291q109 121 272 143q-1 1 -6 11q-4 8 -6 10q-142 23 -224.5 117.5t-82.5 236.5q0 31 21.5 52.5t52.5 21.5q29 0 50 -21.5t21 -52.5q0 -121 90 -176q58 -37 158 -37q170 0 281 72q45 28 69.5 60.5t24.5 60.5q0 34 -53 53q-24 8 -76 8q-71 0 -129.5 -41 t-83.5 -108q-11 -29 -37 -42t-55 -3q-29 11 -42 38t-3 56q41 111 136.5 178.5t213.5 67.5t197 -54q79 -61 79 -153q0 -66 -38.5 -128.5t-110.5 -109.5q-111 -78 -275 -96q61 -55 148 -55q31 0 52.5 -21.5t21.5 -52.5q0 -29 -21.5 -50.5t-52.5 -21.5q-98 0 -166 39 q-2 -2 -10 -2h-88q-123 0 -207 -84q-86 -86 -86 -207t86 -207t207 -86q215 0 370 115q147 104 172 262q6 31 30.5 49t53.5 13q31 -6 49 -30.5t13 -53.5q-19 -108 -79 -200t-153 -159q-193 -141 -456 -141q-181 0 -310 129t-129 309zM541 1585q2 -11 12 -24q19 -23 49 -26 t53 17l170 138q24 18 27.5 48.5t-14.5 53.5q-20 24 -51 27t-54 -15l-170 -139q-39 -35 -22 -80z" />
<glyph unicode="&#xca;" horiz-adv-x="919" d="M-66 438q0 -180 129 -309t310 -129q263 0 456 141q93 67 153 159t79 200q5 29 -13 53.5t-49 30.5q-29 5 -53.5 -13t-30.5 -49q-25 -158 -172 -262q-155 -115 -370 -115q-121 0 -207 86t-86 207t86 207q84 84 207 84h88q8 0 10 2q68 -39 166 -39q31 0 52.5 21.5t21.5 50.5 q0 31 -21.5 52.5t-52.5 21.5q-87 0 -148 55q164 18 275 96q72 47 110.5 109.5t38.5 128.5q0 92 -79 153q-79 54 -197 54t-213.5 -67.5t-136.5 -178.5q-10 -29 3 -56t42 -38q29 -10 55 3t37 42q25 67 83.5 108t129.5 41q52 0 76 -8q53 -19 53 -53q0 -28 -24.5 -60.5 t-69.5 -60.5q-111 -72 -281 -72q-100 0 -158 37q-90 55 -90 176q0 31 -21 52.5t-50 21.5q-31 0 -52.5 -21.5t-21.5 -52.5q0 -142 82.5 -236.5t224.5 -117.5q2 -2 6 -10q5 -10 6 -11q-163 -22 -272 -143q-111 -124 -111 -291zM325 1614.5q-4 -24.5 13 -51.5l6 -9q4 -4 6 -4 q41 -30 82 0l207 148l201 -148q40 -30 80 0q14 0 14 13q20 26 16 51.5t-30 42.5l-240 180q-22 14 -41 14q-27 0 -41 -14l-248 -180q-21 -18 -25 -42.5z" />
<glyph unicode="&#xcb;" horiz-adv-x="919" d="M-66 438q0 167 111 291q109 121 272 143q-1 1 -6 11q-4 8 -6 10q-142 23 -224.5 117.5t-82.5 236.5q0 31 21.5 52.5t52.5 21.5q29 0 50 -21.5t21 -52.5q0 -121 90 -176q58 -37 158 -37q170 0 281 72q45 28 69.5 60.5t24.5 60.5q0 34 -53 53q-24 8 -76 8q-71 0 -129.5 -41 t-83.5 -108q-11 -29 -37 -42t-55 -3q-29 11 -42 38t-3 56q41 111 136.5 178.5t213.5 67.5t197 -54q79 -61 79 -153q0 -66 -38.5 -128.5t-110.5 -109.5q-111 -78 -275 -96q61 -55 148 -55q31 0 52.5 -21.5t21.5 -52.5q0 -29 -21.5 -50.5t-52.5 -21.5q-98 0 -166 39 q-2 -2 -10 -2h-88q-123 0 -207 -84q-86 -86 -86 -207t86 -207t207 -86q215 0 370 115q147 104 172 262q6 31 30.5 49t53.5 13q31 -6 49 -30.5t13 -53.5q-19 -108 -79 -200t-153 -159q-193 -141 -456 -141q-181 0 -310 129t-129 309zM444 1632q-10 -29 3 -56t42 -38 q20 -4 25 -4q49 0 70 49l20 59q11 29 -1.5 57t-41.5 38t-56 -3t-38 -42zM684 1632q-10 -29 3 -56t42 -38q20 -4 25 -4q48 0 69 49l21 59q11 29 -1.5 57t-41.5 38t-56 -3t-38 -42z" />
<glyph unicode="&#xcc;" horiz-adv-x="1015" d="M-61 424q0 -175 124 -299q125 -125 299 -125q136 0 246 80q106 74 154 205l309 854q15 40 35 69q27 44 65 82l13 10q20 12 28 35t2 47q-8 23 -27 37.5t-44 14.5h-541q-92 0 -160 -68q-65 -65 -65 -160q0 -94 65 -159q66 -66 160 -66q92 0 160 68q22 22 22 51t-22 51.5 t-51 22.5q-31 0 -54 -23t-55 -23t-55 23t-23 55t23 56t55 24h379q-31 -47 -49 -96l-307 -856q-29 -85 -101.5 -136t-161.5 -51q-115 0 -194 82q-82 79 -82 195q0 115 82 197q79 79 194 79q113 0 193 -77q23 -23 53 -23q29 0 50.5 22.5t21.5 53.5q0 28 -23 51 q-121 121 -295 121t-299 -125q-124 -124 -124 -299zM819 1738.5q3 -30.5 27 -48.5l170 -138q23 -20 53 -17t49 26q10 13 12 24q17 45 -22 80l-170 139q-23 18 -53.5 15t-50.5 -27q-18 -23 -15 -53.5z" />
<glyph unicode="&#xcd;" horiz-adv-x="1015" d="M-61 424q0 -175 124 -299q125 -125 299 -125q136 0 246 80q106 74 154 205l309 854q15 40 35 69q27 44 65 82l13 10q20 12 28 35t2 47q-8 23 -27 37.5t-44 14.5h-541q-92 0 -160 -68q-65 -65 -65 -160q0 -94 65 -159q66 -66 160 -66q92 0 160 68q22 22 22 51t-22 51.5 t-51 22.5q-31 0 -54 -23t-55 -23t-55 23t-23 55t23 56t55 24h379q-31 -47 -49 -96l-307 -856q-29 -85 -101.5 -136t-161.5 -51q-115 0 -194 82q-82 79 -82 195q0 115 82 197q79 79 194 79q113 0 193 -77q23 -23 53 -23q29 0 50.5 22.5t21.5 53.5q0 28 -23 51 q-121 121 -295 121t-299 -125q-124 -124 -124 -299zM1012 1585q2 -11 12 -24q19 -23 49 -26t53 17l170 138q24 18 27.5 48.5t-14.5 53.5q-20 24 -51 27t-54 -15l-170 -139q-39 -35 -22 -80z" />
<glyph unicode="&#xce;" horiz-adv-x="1015" d="M-61 424q0 -175 124 -299q125 -125 299 -125q136 0 246 80q106 74 154 205l309 854q15 40 35 69q27 44 65 82l13 10q20 12 28 35t2 47q-8 23 -27 37.5t-44 14.5h-541q-92 0 -160 -68q-65 -65 -65 -160q0 -94 65 -159q66 -66 160 -66q92 0 160 68q22 22 22 51t-22 51.5 t-51 22.5q-31 0 -54 -23t-55 -23t-55 23t-23 55t23 56t55 24h379q-31 -47 -49 -96l-307 -856q-29 -85 -101.5 -136t-161.5 -51q-115 0 -194 82q-82 79 -82 195q0 115 82 197q79 79 194 79q113 0 193 -77q23 -23 53 -23q29 0 50.5 22.5t21.5 53.5q0 28 -23 51 q-121 121 -295 121t-299 -125q-124 -124 -124 -299zM778 1614.5q-4 -24.5 13 -51.5l6 -9q4 -4 6 -4q41 -30 82 0l207 148l200 -148q40 -30 80 0q14 0 14 13q20 26 16 51.5t-30 42.5l-239 180q-22 14 -41 14q-27 0 -41 -14l-248 -180q-21 -18 -25 -42.5z" />
<glyph unicode="&#xcf;" horiz-adv-x="1015" d="M-61 424q0 -175 124 -299q125 -125 299 -125q136 0 246 80q106 74 154 205l309 854q15 40 35 69q27 44 65 82l13 10q20 12 28 35t2 47q-8 23 -27 37.5t-44 14.5h-541q-92 0 -160 -68q-65 -65 -65 -160q0 -94 65 -159q66 -66 160 -66q92 0 160 68q22 22 22 51t-22 51.5 t-51 22.5q-31 0 -54 -23t-55 -23t-55 23t-23 55t23 56t55 24h379q-31 -47 -49 -96l-307 -856q-29 -85 -101.5 -136t-161.5 -51q-115 0 -194 82q-82 79 -82 195q0 115 82 197q79 79 194 79q113 0 193 -77q23 -23 53 -23q29 0 50.5 22.5t21.5 53.5q0 28 -23 51 q-121 121 -295 121t-299 -125q-124 -124 -124 -299zM901 1632q-10 -29 3 -56t42 -38q20 -4 25 -4q48 0 69 49l21 59q11 29 -1.5 57t-41.5 38t-56 -3t-38 -42zM1141 1632q-10 -29 3 -56t42 -38q20 -4 24 -4q49 0 70 49l20 59q11 29 -1.5 57t-41.5 38t-56 -3t-38 -42z" />
<glyph unicode="&#xd2;" horiz-adv-x="1275" d="M-62 403q-5 157 60 338q53 144 138.5 271.5t189.5 222.5q222 199 436 199q131 0 221 -78t121 -217q6 -31 -10 -56.5t-45 -31.5q-31 -6 -56.5 10t-31.5 45q-21 99 -84 147q-46 33 -115 33q-85 0 -174 -47q-185 -95 -334 -317q-76 -111 -123 -244t-47 -254 q0 -126 55.5 -201.5t153.5 -75.5q169 0 332 123q78 58 143 142q67 86 101.5 193t7.5 186q-3 3 -3 6q0 2 -2 4q-9 49 -84 59q-83 8 -161 -74q-72 -75 -101 -168q-29 -78 -25.5 -147t38.5 -119q18 -25 13 -55t-30 -47q-25 -19 -55 -14t-47 30q-57 78 -65.5 184t32.5 218 q70 189 193 272q110 76 221 66q82 -6 140 -52t75 -118q42 -128 -11.5 -284.5t-160.5 -277.5q143 21 272 109q90 58 160 141q19 25 49 28t53 -17t26.5 -50t-15.5 -55q-129 -152 -297.5 -231.5t-360.5 -79.5q-15 0 -61 4q-189 -123 -377 -123q-87 0 -158.5 36t-118.5 103 q-73 107 -78 264zM507.5 1738.5q3.5 -30.5 27.5 -48.5l170 -138q23 -20 53 -17t49 26q10 13 12 24q17 45 -22 80l-170 139q-23 18 -54 15t-51 -27q-18 -23 -14.5 -53.5z" />
<glyph unicode="&#xd3;" horiz-adv-x="1275" d="M-62 403q-5 157 60 338q53 144 138.5 271.5t189.5 222.5q222 199 436 199q131 0 221 -78t121 -217q6 -31 -10 -56.5t-45 -31.5q-31 -6 -56.5 10t-31.5 45q-21 99 -84 147q-46 33 -115 33q-85 0 -174 -47q-185 -95 -334 -317q-76 -111 -123 -244t-47 -254 q0 -126 55.5 -201.5t153.5 -75.5q169 0 332 123q78 58 143 142q67 86 101.5 193t7.5 186q-3 3 -3 6q0 2 -2 4q-9 49 -84 59q-83 8 -161 -74q-72 -75 -101 -168q-29 -78 -25.5 -147t38.5 -119q18 -25 13 -55t-30 -47q-25 -19 -55 -14t-47 30q-57 78 -65.5 184t32.5 218 q70 189 193 272q110 76 221 66q82 -6 140 -52t75 -118q42 -128 -11.5 -284.5t-160.5 -277.5q143 21 272 109q90 58 160 141q19 25 49 28t53 -17t26.5 -50t-15.5 -55q-129 -152 -297.5 -231.5t-360.5 -79.5q-15 0 -61 4q-189 -123 -377 -123q-87 0 -158.5 36t-118.5 103 q-73 107 -78 264zM723 1585q2 -11 12 -24q19 -23 49.5 -26t53.5 17l170 138q24 18 27 48.5t-15 53.5q-20 24 -51 27t-54 -15l-170 -139q-39 -35 -22 -80z" />
<glyph unicode="&#xd4;" horiz-adv-x="1275" d="M-62 403q5 -157 78 -264q47 -67 118.5 -103t158.5 -36q188 0 377 123q46 -4 61 -4q192 0 360.5 79.5t297.5 231.5q19 25 15.5 55t-26.5 50t-53 17t-49 -28q-70 -83 -160 -141q-129 -88 -272 -109q107 121 160.5 277.5t11.5 284.5q-17 72 -75 118t-140 52 q-111 10 -221 -66q-123 -83 -193 -272q-41 -112 -32.5 -218t65.5 -184q17 -25 47 -30t55 14q25 17 30 47t-13 55q-35 50 -38.5 119t25.5 147q29 93 101 168q78 82 161 74q75 -10 84 -59q2 -2 2 -4q0 -3 3 -6q27 -84 -19 -216q-63 -177 -233 -305q-163 -123 -332 -123 q-98 0 -153.5 75.5t-55.5 201.5q0 123 53 268q83 236 275 418q182 176 350 176q69 0 115 -33q63 -48 84 -147q6 -29 31.5 -45t56.5 -10q29 6 45 31.5t10 56.5q-31 139 -121 217t-221 78q-214 0 -436 -199q-104 -95 -189.5 -222.5t-138.5 -271.5q-65 -181 -60 -338z M477 1614.5q-4 -24.5 12 -51.5l7 -9q4 -4 6 -4q41 -30 82 0l207 148l200 -148q40 -30 80 0q14 0 14 13q20 26 16 51.5t-30 42.5l-240 180q-22 14 -40 14q-27 0 -41 -14l-248 -180q-21 -18 -25 -42.5z" />
<glyph unicode="&#xd6;" horiz-adv-x="1275" d="M-62 403q-5 157 60 338q53 144 138.5 271.5t189.5 222.5q222 199 436 199q131 0 221 -78t121 -217q6 -31 -10 -56.5t-45 -31.5q-31 -6 -56.5 10t-31.5 45q-21 99 -84 147q-46 33 -115 33q-85 0 -174 -47q-185 -95 -334 -317q-76 -111 -123 -244t-47 -254 q0 -126 55.5 -201.5t153.5 -75.5q169 0 332 123q78 58 143 142q67 86 101.5 193t7.5 186q-3 3 -3 6q0 2 -2 4q-9 49 -84 59q-83 8 -161 -74q-72 -75 -101 -168q-29 -78 -25.5 -147t38.5 -119q18 -25 13 -55t-30 -47q-25 -19 -55 -14t-47 30q-57 78 -65.5 184t32.5 218 q70 189 193 272q110 76 221 66q82 -6 140 -52t75 -118q42 -128 -11.5 -284.5t-160.5 -277.5q143 21 272 109q90 58 160 141q19 25 49 28t53 -17t26.5 -50t-15.5 -55q-129 -152 -297.5 -231.5t-360.5 -79.5q-15 0 -61 4q-189 -123 -377 -123q-87 0 -158.5 36t-118.5 103 q-73 107 -78 264zM616 1632q-10 -29 3.5 -56t42.5 -38q20 -4 24 -4q49 0 70 49l20 59q11 29 -1.5 57t-41.5 38t-56 -3t-38 -42zM856 1632q-10 -29 3 -56t42 -38q20 -4 25 -4q48 0 69 49l21 59q11 29 -1.5 57t-41.5 38t-56 -3t-38 -42z" />
<glyph unicode="&#xd9;" horiz-adv-x="915" d="M-246 997q0 96 66 162q68 68 160 68h331l4 8q26 80 47 111q4 8 9 15t8 11.5t4 5.5q49 49 123 49q73 0 125 -49q49 -52 49 -123q0 -73 -51 -124.5t-123 -51.5h-526q-33 0 -55.5 -23.5t-22.5 -58.5q0 -32 23 -54.5t55 -22.5q27 0 55 22q23 23 51 23q29 0 51.5 -22.5 t22.5 -51.5q0 -28 -23 -51q-63 -66 -157 -66t-160 66t-66 157zM0 367l219 606q10 29 37.5 41.5t56.5 1.5t42 -38t3 -56l-221 -605q-27 -84 6 -129q27 -41 97 -41q87 0 176 66q84 60 121 154l370 1017q11 29 38 42.5t56 3.5t41.5 -38t1.5 -57l-335 -925l-60 -207q-2 0 -2 -4 q-10 -30 -2 -43q7 -9 29 -9q38 0 79 31t58 72l104 289q11 29 38.5 42t56.5 3q29 -11 42 -38.5t3 -56.5l-107 -290q-38 -90 -110 -142q-80 -57 -164 -57q-101 0 -148 72q-12 16 -16 26q-124 -98 -270 -98q-144 0 -217 104q-77 114 -23 263zM376 1738.5q3 -30.5 27 -48.5 l170 -138q23 -20 53.5 -17t49.5 26q10 13 12 24q17 45 -22 80l-170 139q-23 18 -54 15t-51 -27q-18 -23 -15 -53.5zM469 1227h37q26 0 26 28q0 27 -26 27q-3 0 -5.5 -1t-6 -2.5t-5.5 -2.5q-6 -7 -20 -49z" />
<glyph unicode="&#xda;" horiz-adv-x="915" d="M-246 997q0 96 66 162q68 68 160 68h331l4 8q26 80 47 111q4 8 9 15t8 11.5t4 5.5q49 49 123 49q73 0 125 -49q49 -52 49 -123q0 -73 -51 -124.5t-123 -51.5h-526q-33 0 -55.5 -23.5t-22.5 -58.5q0 -32 23 -54.5t55 -22.5q27 0 55 22q23 23 51 23q29 0 51.5 -22.5 t22.5 -51.5q0 -28 -23 -51q-63 -66 -157 -66t-160 66t-66 157zM0 367l219 606q10 29 37.5 41.5t56.5 1.5t42 -38t3 -56l-221 -605q-27 -84 6 -129q27 -41 97 -41q87 0 176 66q84 60 121 154l370 1017q11 29 38 42.5t56 3.5t41.5 -38t1.5 -57l-335 -925l-60 -207q-2 0 -2 -4 q-10 -30 -2 -43q7 -9 29 -9q38 0 79 31t58 72l104 289q11 29 38.5 42t56.5 3q29 -11 42 -38.5t3 -56.5l-107 -290q-38 -90 -110 -142q-80 -57 -164 -57q-101 0 -148 72q-12 16 -16 26q-124 -98 -270 -98q-144 0 -217 104q-77 114 -23 263zM469 1227h37q26 0 26 28 q0 27 -26 27q-3 0 -5.5 -1t-6 -2.5t-5.5 -2.5q-6 -7 -20 -49zM541 1585q2 -11 12 -24q19 -23 49 -26t53 17l170 138q24 18 27.5 48.5t-14.5 53.5q-20 24 -51 27t-54 -15l-170 -139q-39 -35 -22 -80z" />
<glyph unicode="&#xdb;" horiz-adv-x="915" d="M-246 997q0 -91 66 -157t160 -66t157 66q23 23 23 51q0 29 -22.5 51.5t-51.5 22.5q-28 0 -51 -23q-28 -22 -55 -22q-32 0 -55 22.5t-23 54.5q0 35 22.5 58.5t55.5 23.5h526q72 0 123 51.5t51 124.5q0 71 -49 123q-52 49 -125 49q-36 0 -66 -12q-30 -11 -44 -24.5 t-34 -44.5q-21 -31 -47 -111l-4 -8h-331q-92 0 -160 -68q-66 -66 -66 -162zM0 367q-54 -149 23 -263q73 -104 217 -104q146 0 270 98q4 -10 16 -26q47 -72 148 -72q84 0 164 57q72 52 110 142l107 290q10 29 -3 56.5t-42 38.5q-29 10 -56.5 -3t-38.5 -42l-104 -289 q-17 -41 -58 -72t-79 -31q-22 0 -29 9q-8 13 2 43q0 4 2 4l60 207l335 925q11 29 -1.5 57t-41.5 38t-56 -3.5t-38 -42.5l-370 -1017q-37 -94 -121 -154q-89 -66 -176 -66q-70 0 -97 41q-33 45 -6 129l221 605q10 29 -3 56t-42 38t-56.5 -1.5t-37.5 -41.5zM407 1614.5 q-4 -24.5 13 -51.5l6 -9q4 -4 6 -4q41 -30 82 0l207 148l201 -148q40 -29 79 0q15 0 15 13q20 26 16 51.5t-31 42.5l-239 180q-22 14 -41 14q-27 0 -41 -14l-248 -180q-21 -18 -25 -42.5zM469 1227q14 42 20 49q1 1 4.5 2t4.5 2q2 2 8 2q26 0 26 -27q0 -28 -26 -28h-37z" />
<glyph unicode="&#xdc;" horiz-adv-x="915" d="M-246 997q0 96 66 162q68 68 160 68h331l4 8q26 80 47 111q4 8 9 15t8 11.5t4 5.5q49 49 123 49q73 0 125 -49q49 -52 49 -123q0 -73 -51 -124.5t-123 -51.5h-526q-33 0 -55.5 -23.5t-22.5 -58.5q0 -32 23 -54.5t55 -22.5q27 0 55 22q23 23 51 23q29 0 51.5 -22.5 t22.5 -51.5q0 -28 -23 -51q-63 -66 -157 -66t-160 66t-66 157zM0 367l219 606q10 29 37.5 41.5t56.5 1.5t42 -38t3 -56l-221 -605q-27 -84 6 -129q27 -41 97 -41q87 0 176 66q84 60 121 154l370 1017q11 29 38 42.5t56 3.5t41.5 -38t1.5 -57l-335 -925l-60 -207q-2 0 -2 -4 q-10 -30 -2 -43q7 -9 29 -9q38 0 79 31t58 72l104 289q11 29 38.5 42t56.5 3q29 -11 42 -38.5t3 -56.5l-107 -290q-38 -90 -110 -142q-80 -57 -164 -57q-101 0 -148 72q-12 16 -16 26q-124 -98 -270 -98q-144 0 -217 104q-77 114 -23 263zM469 1227h37q26 0 26 28 q0 27 -26 27q-3 0 -5.5 -1t-6 -2.5t-5.5 -2.5q-6 -7 -20 -49zM547 1632q-10 -29 3 -56t42 -38q20 -4 24 -4q49 0 70 49l21 59q11 29 -1.5 57t-41.5 38t-56.5 -3t-38.5 -42zM786 1632q-10 -29 3 -56t42 -38q20 -4 25 -4q49 0 70 49l20 59q11 29 -1.5 57t-41.5 38t-56 -3 t-38 -42z" />
<glyph unicode="&#xdf;" horiz-adv-x="1009" d="M-246 -397q-11 -29 1.5 -57t41.5 -38q20 -4 27 -4q23 0 41.5 13.5t25.5 36.5l588 1611v2q17 54 61.5 86.5t98.5 32.5q68 0 117 -49q49 -52 49 -125q0 -72 -48.5 -122t-117.5 -50h-127q-31 0 -52.5 -21.5t-21.5 -52.5t21.5 -52t52.5 -21q119 0 201 -88q84 -94 84 -211 q0 -143 -95 -244q-100 -100 -276 -100q-82 0 -147 22q-29 10 -55.5 -3.5t-37.5 -43.5q-10 -29 3 -55t42 -37q91 -31 195 -31q242 0 379 143q66 68 102 159.5t35 189.5q0 101 -40 189t-111 151q74 42 117.5 115.5t43.5 162.5q0 135 -92 227q-95 95 -221 95 q-102 0 -183.5 -60.5t-113.5 -159.5z" />
<glyph unicode="&#xe0;" d="M-41.5 289q-3.5 110 43.5 239q76 207 225 340q154 138 305 138q132 0 205 -105l6 -6q0 -1 5 -6l24 67q11 29 38 42t56 3t41.5 -37.5t1.5 -56.5l-225 -620q-14 -35 -14 -72t12 -55l8 -8q7 -7 29 -7q48 0 110 50q69 58 99 141l69 192q11 29 38.5 42t56.5 3t41.5 -37.5 t1.5 -56.5l-70 -192q-46 -111 -123 -185q-106 -102 -223 -102q-106 0 -158 76q-23 32 -31 67q-156 -143 -309 -143q-132 0 -205 104q-54 75 -57.5 185zM104 297q12 -152 117 -152q40 0 103 29q113 56 213 199q52 73 85 169t27 167q-12 151 -117 151q-49 0 -102 -26 q-117 -58 -211 -199q-52 -74 -86.5 -170.5t-28.5 -167.5zM376 1349q3 -31 27 -49l170 -137q23 -20 53.5 -17.5t49.5 25.5q10 13 12 25q17 45 -22 80l-170 139q-23 18 -54 15t-51 -27q-18 -23 -15 -54z" />
<glyph unicode="&#xe1;" d="M-41.5 289q-3.5 110 43.5 239q76 207 225 340q154 138 305 138q132 0 205 -105l6 -6q0 -1 5 -6l24 67q11 29 38 42t56 3t41.5 -37.5t1.5 -56.5l-225 -620q-14 -35 -14 -72t12 -55l8 -8q7 -7 29 -7q48 0 110 50q69 58 99 141l69 192q11 29 38.5 42t56.5 3t41.5 -37.5 t1.5 -56.5l-70 -192q-46 -111 -123 -185q-106 -102 -223 -102q-106 0 -158 76q-23 32 -31 67q-156 -143 -309 -143q-132 0 -205 104q-54 75 -57.5 185zM104 297q12 -152 117 -152q40 0 103 29q113 56 213 199q52 73 85 169t27 167q-12 151 -117 151q-49 0 -102 -26 q-117 -58 -211 -199q-52 -74 -86.5 -170.5t-28.5 -167.5zM541 1202q2 -11 12 -24q19 -23 49 -26t53 17l170 138q24 18 27.5 48.5t-14.5 53.5q-20 24 -51 27t-54 -15l-170 -139q-39 -35 -22 -80z" />
<glyph unicode="&#xe2;" d="M-41 291q3 -77 31 -141t88 -107t143 -43q153 0 309 143q8 -35 31 -67q52 -76 158 -76q117 0 223 102q77 74 123 185l70 192q11 29 -1.5 56.5t-41.5 37.5t-56.5 -3t-38.5 -42l-69 -192q-30 -83 -99 -141q-62 -50 -110 -50q-22 0 -29 7l-8 8q-12 18 -12 55t14 72l225 620 q11 29 -1.5 56.5t-41.5 37.5t-56 -3t-38 -42l-24 -67q-5 5 -5 6l-6 6q-73 105 -205 105q-78 0 -153 -37q-160 -74 -281 -252q-64 -95 -103.5 -209t-35.5 -217zM106.5 350q6.5 60 32.5 127q59 165 183 279q113 104 210 104q56 0 86 -43q28 -40 30.5 -109.5t-32.5 -179.5 q-58 -162 -182 -276q-55 -51 -111.5 -79t-101.5 -28q-56 0 -86 43q-18 26 -26.5 64t-2 98zM325 1198.5q-4 -24.5 13 -51.5l6 -8q4 -4 6 -4q41 -30 82 0l207 147l201 -147q40 -30 80 0q14 0 14 12q20 26 16 51.5t-30 42.5l-240 180q-24 15 -41 15q-26 0 -41 -15l-248 -180 q-21 -18 -25 -42.5z" />
<glyph unicode="&#xe4;" d="M-41.5 289q-3.5 110 43.5 239q76 207 225 340q154 138 305 138q132 0 205 -105l6 -6q0 -1 5 -6l24 67q11 29 38 42t56 3t41.5 -37.5t1.5 -56.5l-225 -620q-14 -35 -14 -72t12 -55l8 -8q7 -7 29 -7q48 0 110 50q69 58 99 141l69 192q11 29 38.5 42t56.5 3t41.5 -37.5 t1.5 -56.5l-70 -192q-46 -111 -123 -185q-106 -102 -223 -102q-106 0 -158 76q-23 32 -31 67q-156 -143 -309 -143q-132 0 -205 104q-54 75 -57.5 185zM104 297q12 -152 117 -152q40 0 103 29q113 56 213 199q52 73 85 169t27 167q-12 151 -117 151q-49 0 -102 -26 q-117 -58 -211 -199q-52 -74 -86.5 -170.5t-28.5 -167.5zM444 1266q-10 -29 3 -56.5t42 -38.5q20 -4 25 -4q49 0 70 50l20 59q11 29 -1.5 56.5t-41.5 37.5t-56 -3t-38 -42zM684 1266q-10 -29 3 -56.5t42 -38.5q20 -4 25 -4q48 0 69 50l21 59q11 29 -1.5 56.5t-41.5 37.5 t-56 -3t-38 -42z" />
<glyph unicode="&#xe6;" horiz-adv-x="1427" d="M-42.5 284.5q4.5 -109.5 58.5 -184.5q72 -104 203 -104q122 0 248 90q-7 -26 6 -50.5t39 -35.5q12 -4 25 -4q54 0 69 47l25 72q41 -55 107.5 -85t148.5 -30q224 0 418 125q192 124 262 315q10 29 -3 56.5t-42 38.5q-29 10 -55 -3t-37 -43q-51 -143 -209 -243 q-162 -101 -334 -101q-19 0 -72 11q-45 11 -73.5 56.5t-22.5 111.5q255 9 455 168q96 73 150 160.5t54 166.5t-51 127q-63 60 -180 60q-114 0 -236 -84q4 24 -9.5 44t-37.5 31q-29 10 -56 -3t-38 -42q0 -5 -25 -69q-1 1 -2 4t-2 4l-4 6q-73 104 -205 104q-152 0 -305 -137 q-151 -135 -227 -342q-47 -128 -42.5 -237.5zM104.5 291q-2.5 69 32.5 182q57 159 185 277q113 104 210 104q57 0 84 -41q28 -40 32.5 -103.5t-27.5 -168.5q-1 -2 -2 -5t-2 -5t-1 -3q-4 -6 -8 -22q-64 -163 -180 -264q-119 -101 -209 -101q-54 0 -84 41q-28 40 -30.5 109z M758 473q7 16 14 41q12 38 14 41q71 140 175 223q102 82 186 82q27 0 51 -4q17 -7 25 -12q10 -8 10 -25q0 -39 -38.5 -98t-111.5 -115q-138 -114 -325 -133z" />
<glyph unicode="&#xe7;" horiz-adv-x="860" d="M-37 272q8 -89 53 -149q41 -59 107.5 -91t146.5 -32q227 0 445 141q99 65 173.5 153t110.5 185q11 29 -1.5 56.5t-41.5 37.5t-56 -3t-38 -42q-58 -153 -231 -268q-179 -115 -361 -115q-91 0 -135 62q-61 89 6 270q59 165 183 279q113 104 213 104q47 0 61 -20q8 -8 8 -21 q0 -18 -2 -24q-4 -31 14.5 -55t49.5 -29q29 -5 53.5 13.5t28.5 49.5q16 91 -41 162q-58 70 -172 70q-152 0 -306 -138q-150 -132 -227 -340q-54 -147 -41 -256zM319 -242q-11 -29 1.5 -56.5t41.5 -37.5q20 -4 27 -4q52 0 68 49l53 146q10 29 -3 56t-42 38q-29 10 -56 -3 t-38 -42z" />
<glyph unicode="&#xe8;" horiz-adv-x="813" d="M-45 328q-3 -128 53 -205q85 -123 262 -123q224 0 418 125q192 124 262 315q10 29 -3 56.5t-42 38.5q-29 10 -56 -3.5t-38 -42.5q-51 -144 -207 -243q-162 -101 -334 -101q-18 0 -71 11q-45 11 -72.5 55t-26.5 113q257 9 457 168q96 73 150.5 160.5t54.5 166.5t-51 127 q-63 60 -181 60q-151 0 -305 -138q-152 -136 -227 -340q-40 -103 -43 -200zM133 471q2 2 2 4l2 2q59 166 182 279q113 104 211 104q28 0 52 -4q15 -6 24 -12q10 -8 10 -25q0 -39 -38 -98t-111 -115q-56 -45 -127 -80q-92 -43 -207 -55zM253.5 1349q3.5 -31 27.5 -49 l170 -137q23 -20 53 -17.5t49 25.5q10 13 12 25q17 45 -22 80l-170 139q-23 18 -54 15t-51 -27q-18 -23 -14.5 -54z" />
<glyph unicode="&#xe9;" horiz-adv-x="813" d="M-45 328q-3 -128 53 -205q85 -123 262 -123q224 0 418 125q192 124 262 315q10 29 -3 56.5t-42 38.5q-29 10 -56 -3.5t-38 -42.5q-51 -144 -207 -243q-162 -101 -334 -101q-18 0 -71 11q-45 11 -72.5 55t-26.5 113q257 9 457 168q96 73 150.5 160.5t54.5 166.5t-51 127 q-63 60 -181 60q-151 0 -305 -138q-152 -136 -227 -340q-40 -103 -43 -200zM133 471q2 2 2 4l2 2q59 166 182 279q113 104 211 104q28 0 52 -4q15 -6 24 -12q10 -8 10 -25q0 -39 -38 -98t-111 -115q-56 -45 -127 -80q-92 -43 -207 -55zM397 1202q2 -9 13 -24q19 -23 49 -26 t53 17l170 138q24 18 27 48.5t-15 53.5q-20 24 -50.5 27t-53.5 -15l-170 -139q-39 -36 -23 -80z" />
<glyph unicode="&#xea;" horiz-adv-x="813" d="M-45 328q-3 -128 53 -205q85 -123 262 -123q224 0 418 125q192 124 262 315q10 29 -3 56.5t-42 38.5q-29 10 -56 -3.5t-38 -42.5q-51 -144 -207 -243q-162 -101 -334 -101q-18 0 -71 11q-45 11 -72.5 55t-26.5 113q257 9 457 168q96 73 150.5 160.5t54.5 166.5t-51 127 q-63 60 -181 60q-151 0 -305 -138q-152 -136 -227 -340q-40 -103 -43 -200zM133 471q2 2 2 4l2 2q59 166 182 279q113 104 211 104q28 0 52 -4q15 -6 24 -12q10 -8 10 -25q0 -39 -38 -98t-111 -115q-56 -45 -127 -80q-92 -43 -207 -55zM182 1198.5q-4 -24.5 13 -51.5l6 -8 q4 -4 6 -4q41 -30 82 0l207 147l200 -147q40 -30 80 0q15 0 15 12q20 26 16 51.5t-31 42.5l-239 180q-24 15 -41 15q-26 0 -41 -15l-248 -180q-21 -18 -25 -42.5z" />
<glyph unicode="&#xeb;" horiz-adv-x="813" d="M-45 328q-3 -128 53 -205q85 -123 262 -123q224 0 418 125q192 124 262 315q10 29 -3 56.5t-42 38.5q-29 10 -56 -3.5t-38 -42.5q-51 -144 -207 -243q-162 -101 -334 -101q-18 0 -71 11q-45 11 -72.5 55t-26.5 113q257 9 457 168q96 73 150.5 160.5t54.5 166.5t-51 127 q-63 60 -181 60q-151 0 -305 -138q-152 -136 -227 -340q-40 -103 -43 -200zM133 471q2 2 2 4l2 2q59 166 182 279q113 104 211 104q28 0 52 -4q15 -6 24 -12q10 -8 10 -25q0 -39 -38 -98t-111 -115q-56 -45 -127 -80q-92 -43 -207 -55zM281 1266q-10 -29 3 -56.5t42 -38.5 q20 -4 24 -4q49 0 70 50l20 59q11 29 -1.5 56.5t-41.5 37.5t-56 -3t-38 -42zM520 1266q-10 -29 3 -56.5t42 -38.5q20 -4 25 -4q48 0 69 50l21 59q11 29 -1.5 56.5t-41.5 37.5t-56 -3t-38 -42z" />
<glyph unicode="&#xec;" horiz-adv-x="374" d="M-96 251.5q6 44.5 22 86.5l228 618q10 29 36.5 41.5t55.5 1.5t42 -37t3 -55l-228 -622q-12 -35 -13 -70.5t9 -54.5q5 -6 13 -8q7 -7 26 -7q50 0 109 50q65 55 100 143l70 190q11 29 38 42t56 3t41.5 -37.5t1.5 -56.5l-70 -194q-46 -109 -122 -183q-106 -102 -224 -102 q-104 0 -155 76q-26 36 -35.5 83.5t-3.5 92zM20 1349q3 -31 27 -49l170 -137q23 -20 53 -17.5t49 25.5q11 15 13 25q16 44 -23 80l-170 139q-23 18 -53.5 15t-50.5 -27q-18 -23 -15 -54z" />
<glyph unicode="&#xed;" horiz-adv-x="374" d="M-96 251.5q6 44.5 22 86.5l228 618q10 29 36.5 41.5t55.5 1.5t42 -37t3 -55l-228 -622q-12 -35 -13 -70.5t9 -54.5q5 -6 13 -8q7 -7 26 -7q50 0 109 50q65 55 100 143l70 190q11 29 38 42t56 3t41.5 -37.5t1.5 -56.5l-70 -194q-46 -109 -122 -183q-106 -102 -224 -102 q-104 0 -155 76q-26 36 -35.5 83.5t-3.5 92zM238 1202q2 -11 12 -24q19 -23 49 -26t53 17l170 138q24 18 27.5 48.5t-14.5 53.5q-20 24 -51 27t-54 -15l-170 -139q-39 -35 -22 -80z" />
<glyph unicode="&#xee;" horiz-adv-x="374" d="M-96 251.5q-6 -44.5 3.5 -92t35.5 -83.5q51 -76 155 -76q118 0 224 102q76 74 122 183l70 194q11 29 -1.5 56.5t-41.5 37.5t-56 -3t-38 -42l-70 -190q-35 -88 -100 -143q-59 -50 -109 -50q-19 0 -26 7q-8 2 -13 8q-10 19 -9 54.5t13 70.5l228 622q10 29 -3 55t-42 37 t-55.5 -1.5t-36.5 -41.5l-228 -618q-16 -42 -22 -86.5zM-13 1198.5q-4 -24.5 13 -51.5l6 -8q4 -4 6 -4q41 -30 82 0l207 147l201 -147q40 -30 80 0q14 0 14 12q20 26 16 51.5t-30 42.5l-240 180q-24 15 -41 15q-26 0 -41 -15l-248 -180q-21 -18 -25 -42.5z" />
<glyph unicode="&#xef;" horiz-adv-x="374" d="M-96 251.5q6 44.5 22 86.5l228 618q10 29 36.5 41.5t55.5 1.5t42 -37t3 -55l-228 -622q-12 -35 -13 -70.5t9 -54.5q5 -6 13 -8q7 -7 26 -7q50 0 109 50q65 55 100 143l70 190q11 29 38 42t56 3t41.5 -37.5t1.5 -56.5l-70 -194q-46 -109 -122 -183q-106 -102 -224 -102 q-104 0 -155 76q-26 36 -35.5 83.5t-3.5 92zM104 1266q-10 -29 3.5 -56.5t42.5 -38.5q20 -4 24 -4q49 0 70 50l20 59q11 29 -1.5 56.5t-41.5 37.5t-56 -3t-38 -42zM344 1266q-10 -29 3 -56.5t42 -38.5q20 -4 25 -4q48 0 69 50l21 59q11 29 -1.5 56.5t-41.5 37.5t-56 -3 t-38 -42z" />
<glyph unicode="&#xf2;" horiz-adv-x="935" d="M-43.5 289q-3.5 110 43.5 239q76 207 225 340q154 138 305 138q96 0 163.5 -58.5t90.5 -159.5q6 -30 -10.5 -55t-46.5 -31q-29 -6 -54.5 10.5t-31.5 45.5q-21 102 -111 102q-49 0 -102 -26q-117 -58 -211 -199q-52 -74 -86.5 -170.5t-28.5 -167.5q12 -152 117 -152 q33 0 86 17q-10 8 -22 28q-41 57 -47.5 132t22.5 157q43 120 125.5 184t175.5 58q61 -4 106.5 -40.5t59.5 -92.5q48 -147 -76 -340q104 35 179 112t108 168q10 29 37.5 41.5t56.5 1.5t42 -37t3 -55q-67 -169 -201 -272q-160 -127 -362 -127h-18q-13 0 -19 2 q-129 -82 -256 -82q-132 0 -205 104q-54 75 -57.5 185zM253.5 1349q3.5 -31 27.5 -49l170 -137q23 -20 53 -17.5t49 25.5q10 13 12 25q17 45 -22 80l-170 139q-23 18 -54 15t-51 -27q-18 -23 -14.5 -54zM394 422q-26 -84 7 -148q18 -23 43 -34q92 76 129 176q28 81 13 129 l-2 4l-2 6q-3 18 -33 18q-2 2 -6 2q-38 0 -76 -32q-47 -37 -73 -121z" />
<glyph unicode="&#xf3;" horiz-adv-x="935" d="M-43.5 289q-3.5 110 43.5 239q76 207 225 340q154 138 305 138q96 0 163.5 -58.5t90.5 -159.5q6 -30 -10.5 -55t-46.5 -31q-29 -6 -54.5 10.5t-31.5 45.5q-21 102 -111 102q-49 0 -102 -26q-117 -58 -211 -199q-52 -74 -86.5 -170.5t-28.5 -167.5q12 -152 117 -152 q33 0 86 17q-10 8 -22 28q-41 57 -47.5 132t22.5 157q43 120 125.5 184t175.5 58q61 -4 106.5 -40.5t59.5 -92.5q48 -147 -76 -340q104 35 179 112t108 168q10 29 37.5 41.5t56.5 1.5t42 -37t3 -55q-67 -169 -201 -272q-160 -127 -362 -127h-18q-13 0 -19 2 q-129 -82 -256 -82q-132 0 -205 104q-54 75 -57.5 185zM394 422q-26 -84 7 -148q18 -23 43 -34q92 76 129 176q28 81 13 129l-2 4l-2 6q-3 18 -33 18q-2 2 -6 2q-38 0 -76 -32q-47 -37 -73 -121zM479 1202q2 -9 13 -24q19 -23 49 -26t53 17l170 138q24 18 27 48.5t-15 53.5 q-20 24 -50.5 27t-53.5 -15l-170 -139q-39 -36 -23 -80z" />
<glyph unicode="&#xf4;" horiz-adv-x="935" d="M-43 291q3 -77 31 -141t88 -107t143 -43q127 0 256 82q6 -2 19 -2h18q202 0 362 127q134 103 201 272q10 29 -3 55t-42 37t-56.5 -1.5t-37.5 -41.5q-33 -91 -108 -168t-179 -112q124 193 76 340q-14 56 -59.5 92.5t-106.5 40.5q-93 6 -175.5 -58t-125.5 -184 q-29 -82 -22.5 -157t47.5 -132q12 -20 22 -28q-53 -17 -86 -17q-56 0 -86 43q-18 26 -26.5 64t-2 98t32.5 127q59 166 182 279q113 104 211 104q90 0 111 -102q6 -29 31.5 -45.5t54.5 -10.5q30 6 46.5 31t10.5 55q-23 101 -90.5 159.5t-163.5 58.5q-78 0 -153 -37 q-160 -74 -281 -252q-64 -95 -103.5 -209t-35.5 -217zM243 1198.5q-4 -24.5 13 -51.5l6 -8q4 -4 6 -4q41 -30 82 0l207 147l201 -147q40 -30 80 0q14 0 14 12q20 26 16 51.5t-30 42.5l-240 180q-24 15 -41 15q-26 0 -41 -15l-248 -180q-21 -18 -25 -42.5zM397 428 q27 76 66.5 111.5t79.5 35.5q4 0 6 -2q30 0 33 -18l2 -6l2 -4q15 -48 -13 -129q-37 -100 -129 -176q-25 11 -43 34q-39 57 -4 154z" />
<glyph unicode="&#xf6;" horiz-adv-x="935" d="M-43.5 289q-3.5 110 43.5 239q76 207 225 340q154 138 305 138q96 0 163.5 -58.5t90.5 -159.5q6 -30 -10.5 -55t-46.5 -31q-29 -6 -54.5 10.5t-31.5 45.5q-21 102 -111 102q-49 0 -102 -26q-117 -58 -211 -199q-52 -74 -86.5 -170.5t-28.5 -167.5q12 -152 117 -152 q33 0 86 17q-10 8 -22 28q-41 57 -47.5 132t22.5 157q43 120 125.5 184t175.5 58q61 -4 106.5 -40.5t59.5 -92.5q48 -147 -76 -340q104 35 179 112t108 168q10 29 37.5 41.5t56.5 1.5t42 -37t3 -55q-67 -169 -201 -272q-160 -127 -362 -127h-18q-13 0 -19 2 q-129 -82 -256 -82q-132 0 -205 104q-54 75 -57.5 185zM362 1266q-10 -29 3.5 -56.5t42.5 -38.5q20 -4 24 -4q49 0 70 50l20 59q11 29 -1.5 56.5t-41.5 37.5t-56 -3t-38 -42zM394 422q-26 -84 7 -148q18 -23 43 -34q92 76 129 176q28 81 13 129l-2 4l-2 6q-3 18 -33 18 q-2 2 -6 2q-38 0 -76 -32q-47 -37 -73 -121zM602 1266q-10 -29 3 -56.5t42 -38.5q20 -4 25 -4q48 0 69 50l21 59q11 29 -1.5 56.5t-41.5 37.5t-56 -3t-38 -42z" />
<glyph unicode="&#xf9;" horiz-adv-x="860" d="M-63 334l227 622q11 29 38 42t56 3t41.5 -37.5t1.5 -56.5l-225 -622q-25 -67 2 -107q22 -33 78 -33q73 0 151 58q75 53 103 131v2l227 620q11 29 37 42t55 3q29 -11 42 -38t3 -56l-227 -620q-12 -37 -13 -73t11 -54q7 -7 10 -8q7 -7 27 -7q48 0 110 50q69 58 99 141 l69 192q10 29 37.5 41.5t56.5 1.5q29 -10 41.5 -36.5t1.5 -55.5l-69 -192q-46 -111 -123 -185q-106 -102 -223 -102q-106 0 -158 76l-6 12q-2 2 -6 10q-126 -98 -256 -98q-136 0 -197 94q-69 100 -22 240zM253.5 1349q3.5 -31 27.5 -49l170 -137q23 -20 53 -17.5t49 25.5 q10 13 12 25q17 45 -22 80l-170 139q-23 18 -54 15t-51 -27q-18 -23 -14.5 -54z" />
<glyph unicode="&#xfa;" horiz-adv-x="860" d="M-63 334l227 622q11 29 38 42t56 3t41.5 -37.5t1.5 -56.5l-225 -622q-25 -67 2 -107q22 -33 78 -33q73 0 151 58q75 53 103 131v2l227 620q11 29 37 42t55 3q29 -11 42 -38t3 -56l-227 -620q-12 -37 -13 -73t11 -54q7 -7 10 -8q7 -7 27 -7q48 0 110 50q69 58 99 141 l69 192q10 29 37.5 41.5t56.5 1.5q29 -10 41.5 -36.5t1.5 -55.5l-69 -192q-46 -111 -123 -185q-106 -102 -223 -102q-106 0 -158 76l-6 12q-2 2 -6 10q-126 -98 -256 -98q-136 0 -197 94q-69 100 -22 240zM438 1202q2 -9 13 -24q19 -23 49 -26t53 17l170 138q24 18 27 48.5 t-15 53.5q-20 24 -50.5 27t-53.5 -15l-170 -139q-39 -36 -23 -80z" />
<glyph unicode="&#xfb;" horiz-adv-x="860" d="M-63 334q-47 -140 22 -240q61 -94 197 -94q130 0 256 98q4 -8 6 -10l6 -12q52 -76 158 -76q117 0 223 102q77 74 123 185l69 192q11 29 -1.5 55.5t-41.5 36.5q-29 11 -56.5 -1.5t-37.5 -41.5l-69 -192q-30 -83 -99 -141q-62 -50 -110 -50q-20 0 -27 7q-3 1 -10 8 q-12 18 -11 54t13 73l227 620q10 29 -3 56t-42 38q-29 10 -55 -3t-37 -42l-227 -620v-2q-28 -78 -103 -131q-78 -58 -151 -58q-56 0 -78 33q-27 40 -2 107l225 622q11 29 -1.5 56.5t-41.5 37.5t-56 -3t-38 -42zM202 1198.5q-4 -24.5 13 -51.5l6 -8q4 -4 6 -4q41 -30 82 0 l207 147l201 -147q40 -30 80 0q14 0 14 12q20 26 16 51.5t-30 42.5l-240 180q-24 15 -41 15q-26 0 -41 -15l-248 -180q-21 -18 -25 -42.5z" />
<glyph unicode="&#xfc;" horiz-adv-x="860" d="M-63 334l227 622q11 29 38 42t56 3t41.5 -37.5t1.5 -56.5l-225 -622q-25 -67 2 -107q22 -33 78 -33q73 0 151 58q75 53 103 131v2l227 620q11 29 37 42t55 3q29 -11 42 -38t3 -56l-227 -620q-12 -37 -13 -73t11 -54q7 -7 10 -8q7 -7 27 -7q48 0 110 50q69 58 99 141 l69 192q10 29 37.5 41.5t56.5 1.5q29 -10 41.5 -36.5t1.5 -55.5l-69 -192q-46 -111 -123 -185q-106 -102 -223 -102q-106 0 -158 76l-6 12q-2 2 -6 10q-126 -98 -256 -98q-136 0 -197 94q-69 100 -22 240zM322 1266q-10 -29 3 -56.5t42 -38.5q20 -4 24 -4q49 0 70 50l20 59 q11 29 -1.5 56.5t-41.5 37.5t-56 -3t-38 -42zM561 1266q-10 -29 3 -56.5t42 -38.5q20 -4 25 -4q48 0 69 50l21 59q11 29 -1.5 56.5t-41.5 37.5t-56 -3t-38 -42z" />
<glyph unicode="&#x152;" horiz-adv-x="1806" d="M-61 410q3 -81 25.5 -152t64.5 -127.5t109 -89.5t153 -33q216 0 418 154q70 50 141 131q51 -137 158 -211q116 -82 254 -82q263 0 456 141q192 137 230 357q5 29 -13 54.5t-47 29.5q-31 4 -55 -13.5t-29 -46.5q-23 -153 -172 -264q-157 -113 -370 -113q-119 0 -205 86 t-86 205q0 40 8 64q3 6 5 12t3 11t2 7l12 37q37 73 106.5 116.5t154.5 43.5h98q75 -37 166 -37q31 0 51 20.5t20 51.5t-20.5 52.5t-50.5 21.5q-87 0 -146 53q180 14 310 121q110 93 110 213q0 93 -72.5 150t-189.5 57q-128 0 -231 -93q-102 -92 -117 -229q-6 -40 24 -64 q-94 27 -124 125q0 4 -3 7q-35 123 -121 190.5t-208 67.5q-102 0 -219 -54q-232 -111 -402 -364q-92 -135 -148 -295.5t-50 -310.5zM84 430q0 129 51 266q42 117 113.5 225t159.5 191q182 176 350 176q82 0 135 -53q36 -36 57 -109q0 -2 2 -2v-4q53 -173 240 -221 q3 -7 16 -29q-110 -16 -188 -71q-3 23 -10 39q-17 72 -75.5 119t-139.5 53q-114 10 -220 -66q-121 -86 -190 -272q-41 -112 -32.5 -217t65.5 -183q17 -25 46 -29t54 13t30.5 47t-11.5 55q-36 48 -40 117.5t25 147.5q42 103 101 168q69 76 161 73q75 -10 84 -59q0 -4 2 -4v-6 q23 -68 -4 -177q-15 -24 -26 -71q-77 -164 -219 -268q-78 -60 -164 -92.5t-166 -32.5q-98 0 -152.5 74.5t-54.5 201.5zM1288 1030q18 8 31 24t14 36q10 84 68.5 139t136.5 55q63 0 98 -24q19 -16 19 -37q0 -26 -21 -59t-61 -62q-100 -72 -264 -72h-21z" />
<glyph unicode="&#x153;" horiz-adv-x="1433" d="M-41 289q3 -77 31 -141t88 -107t143 -43q129 0 258 82q6 -2 17 -2h18q72 0 127 14q88 -98 244 -98q224 0 418 125q192 124 262 315q11 29 -1.5 56.5t-41.5 37.5q-29 11 -57 -1.5t-38 -41.5q-52 -146 -208 -245q-162 -101 -334 -101q-19 0 -72 11q-45 11 -73.5 56 t-22.5 111q254 9 457 168q94 73 148 161.5t54 166.5q0 75 -51 129q-56 59 -178 59q-91 0 -186.5 -52t-178.5 -144q-25 94 -90 147.5t-157 53.5q-79 0 -154 -37q-160 -74 -283 -254q-64 -94 -103.5 -207.5t-35.5 -218.5zM107 348q6 61 32 129q58 162 183 277q113 104 213 104 q87 0 108 -100q9 -48 59 -58q-1 -2 -10 -16t-10 -16q-48 48 -121 51q-89 9 -170 -53q-86 -65 -129 -189q-61 -166 23 -289q4 -6 12 -14q3 -8 12 -14q-43 -15 -88 -15q-57 0 -84 41q-18 26 -27 63.5t-3 98.5zM399 428q27 75 67.5 110t78.5 35h6q32 0 35 -20v-4l2 -4 q15 -51 -13 -129q-36 -98 -129 -178q-30 17 -40 34q-42 60 -7 156zM750 467q0 4 2 6q58 163 182 277q113 104 213 104q54 0 74 -16q10 -8 10 -25q0 -39 -38.5 -98t-111.5 -115q-71 -52 -127 -78q-93 -44 -204 -55z" />
<glyph unicode="&#x2c6;" horiz-adv-x="1705" />
<glyph unicode="&#x2000;" horiz-adv-x="1167" />
<glyph unicode="&#x2001;" horiz-adv-x="2335" />
<glyph unicode="&#x2002;" horiz-adv-x="1167" />
<glyph unicode="&#x2003;" horiz-adv-x="2335" />
<glyph unicode="&#x2004;" horiz-adv-x="778" />
<glyph unicode="&#x2005;" horiz-adv-x="583" />
<glyph unicode="&#x2006;" horiz-adv-x="389" />
<glyph unicode="&#x2007;" horiz-adv-x="389" />
<glyph unicode="&#x2008;" horiz-adv-x="291" />
<glyph unicode="&#x2009;" horiz-adv-x="467" />
<glyph unicode="&#x200a;" horiz-adv-x="129" />
<glyph unicode="&#x2010;" horiz-adv-x="751" d="M61 557q0 -31 21.5 -52.5t52.5 -21.5h481q31 0 52.5 21.5t21.5 52.5t-21.5 52.5t-52.5 21.5h-481q-31 0 -52.5 -21.5t-21.5 -52.5z" />
<glyph unicode="&#x2011;" horiz-adv-x="751" d="M61 557q0 -31 21.5 -52.5t52.5 -21.5h481q31 0 52.5 21.5t21.5 52.5t-21.5 52.5t-52.5 21.5h-481q-31 0 -52.5 -21.5t-21.5 -52.5z" />
<glyph unicode="&#x2012;" horiz-adv-x="751" d="M61 557q0 -31 21.5 -52.5t52.5 -21.5h481q31 0 52.5 21.5t21.5 52.5t-21.5 52.5t-52.5 21.5h-481q-31 0 -52.5 -21.5t-21.5 -52.5z" />
<glyph unicode="&#x2013;" horiz-adv-x="876" d="M61 557q0 -31 21.5 -52.5t52.5 -21.5h604q31 0 52.5 21.5t21.5 52.5t-21.5 52.5t-52.5 21.5h-604q-31 0 -52.5 -21.5t-21.5 -52.5z" />
<glyph unicode="&#x2014;" horiz-adv-x="1083" d="M61 557q0 -31 21.5 -52.5t52.5 -21.5h830q31 0 52 21.5t21 52.5t-21 52.5t-52 21.5h-830q-31 0 -52.5 -21.5t-21.5 -52.5z" />
<glyph unicode="&#x2018;" horiz-adv-x="514" d="M193 1141q-11 -29 1.5 -56.5t41.5 -37.5q25 -5 26 -5q23 0 42 13.5t26 36.5l114 311q10 29 -3 56t-42 38q-29 10 -56 -3t-38 -42z" />
<glyph unicode="&#x2019;" horiz-adv-x="514" d="M193 1141q-11 -29 1.5 -56.5t41.5 -37.5q25 -5 26 -5q23 0 42 13.5t26 36.5l114 311q10 29 -3 56t-42 38q-29 10 -56 -3t-38 -42z" />
<glyph unicode="&#x201a;" horiz-adv-x="466" d="M8 -160q-11 -29 1.5 -56.5t41.5 -37.5q20 -4 27 -4q51 0 67 49l115 311q10 29 -3 56.5t-42 38.5q-29 10 -56 -3t-38 -42z" />
<glyph unicode="&#x201c;" horiz-adv-x="698" d="M127 1141q-11 -29 1.5 -56.5t41.5 -37.5q25 -5 27 -5q23 0 41.5 13.5t25.5 36.5l115 311q10 29 -3 56t-42 38q-29 10 -56 -3t-38 -42zM420 1141q-11 -29 1.5 -56.5t41.5 -37.5q25 -5 26 -5q23 0 42 13.5t26 36.5l115 311q10 29 -3 56t-42 38q-29 10 -56.5 -3t-38.5 -42z " />
<glyph unicode="&#x201d;" horiz-adv-x="698" d="M127 1141q-11 -29 1.5 -56.5t41.5 -37.5q25 -5 27 -5q23 0 41.5 13.5t25.5 36.5l115 311q10 29 -3 56t-42 38q-29 10 -56 -3t-38 -42zM420 1141q-11 -29 1.5 -56.5t41.5 -37.5q25 -5 26 -5q23 0 42 13.5t26 36.5l115 311q10 29 -3 56t-42 38q-29 10 -56.5 -3t-38.5 -42z " />
<glyph unicode="&#x201e;" horiz-adv-x="737" d="M8 -160q-11 -29 1.5 -56.5t41.5 -37.5q20 -4 27 -4q51 0 67 49l115 311q10 29 -3 56.5t-42 38.5q-29 10 -56 -3t-38 -42zM309 -160q-11 -29 1.5 -56.5t41.5 -37.5q20 -4 27 -4q51 0 67 49l115 311q10 29 -3 56.5t-42 38.5q-29 10 -56 -3t-38 -42z" />
<glyph unicode="&#x2022;" horiz-adv-x="675" d="M195 659q-23 -60 4.5 -101.5t87.5 -41.5t116 43q58 41 78 100q23 60 -3.5 102t-86.5 42t-117 -41q-60 -46 -79 -103z" />
<glyph unicode="&#x2026;" horiz-adv-x="1241" d="M139 98q-10 -29 3 -56t42 -38q20 -4 25 -4q49 0 70 49l20 60q11 29 -1.5 56.5t-41.5 37.5t-56 -3t-38 -42zM553 98q-10 -29 3 -56t42 -38q20 -4 25 -4q48 0 69 49l21 60q11 29 -1.5 56.5t-41.5 37.5t-56.5 -3t-38.5 -42zM967 98q-10 -29 3 -56t42 -38q20 -4 24 -4 q49 0 70 49l20 60q11 29 -1.5 56.5t-41.5 37.5t-56 -3t-38 -42z" />
<glyph unicode="&#x202f;" horiz-adv-x="467" />
<glyph unicode="&#x205f;" horiz-adv-x="583" />
<glyph unicode="&#x20ac;" horiz-adv-x="1232" d="M-41 621q0 -31 21.5 -52.5t52.5 -21.5h190q6 -126 49 -230q23 -58 57 -109t86 -100.5t128.5 -78.5t167.5 -29q192 0 366 137q166 124 262 338q14 29 4.5 57t-38.5 41t-58 3t-41 -39q-85 -181 -217 -283q-138 -107 -278 -107q-127 0 -217 93q-112 112 -121 307h364 q31 0 52.5 21.5t21.5 52.5t-21.5 52t-52.5 21h-704q-31 0 -52.5 -21t-21.5 -52zM37 942q0 -77 43 -111q40 -43 110 -43h635q31 0 52.5 21.5t21.5 52.5t-21.5 52.5t-52.5 21.5h-370q83 164 215 268q131 103 272 103q78 0 119 -41q39 -39 39 -121q0 -31 21.5 -52.5t52.5 -21.5 q31 -1 52 20t21 52q4 141 -79 226t-226 85q-195 0 -375 -143q-179 -143 -274 -375h-109v6q0 38 35.5 76.5t89.5 58.5q29 11 42 38t3 56q-11 29 -38 42.5t-56 3.5q-98 -35 -160.5 -112t-62.5 -163z" />
<glyph unicode="&#x2122;" horiz-adv-x="1032" d="M129 1139q0 -30 21 -51t51 -21h45l-76 -211q-11 -29 1.5 -55.5t41.5 -36.5q20 -4 25 -4q52 0 67 47l94 260h39l-78 -211q-11 -29 1.5 -55.5t41.5 -36.5q20 -4 27 -4q47 0 68 47l61 174l21 -29q17 -26 45.5 -31.5t54.5 11.5l16 10l-30 -86q-11 -29 1.5 -55.5t41.5 -36.5 q20 -4 24 -4q53 0 68 47l106 293q15 54 -22 82q-41 30 -86 4l-140 -94l-59 88l-4 4v2l-4 4h-2q0 4 -4 4v2q-6 0 -6 4h-2l-3 2h-2l-2 2h-4v2h-4l-2 2h-6l-2 2h-352q-29 0 -50.5 -21t-21.5 -50z" />
<glyph unicode="&#x25fc;" horiz-adv-x="1003" d="M0 0v1004h1004v-1004h-1004z" />
</font>
</defs>
</svg>
